{"glyphs":{"0":{"ha":879,"x_min":86,"x_max":793,"o":"m 596 -6 l 283 -6 q 141 49 196 -6 q 86 192 86 104 l 86 808 q 141 951 86 896 q 283 1006 196 1006 l 596 1006 q 738 951 683 1006 q 793 808 793 896 l 793 192 q 738 49 793 104 q 596 -6 683 -6 m 286 769 l 286 231 q 333 183 286 183 l 546 183 q 593 231 593 183 l 593 769 q 546 817 593 817 l 333 817 q 286 769 286 817 z "},"1":{"ha":571,"x_min":57,"x_max":439,"o":"m 239 0 l 239 792 l 57 728 l 57 894 l 281 1000 l 439 1000 l 439 0 l 239 0 z "},"2":{"ha":840,"x_min":79,"x_max":776,"o":"m 285 697 l 285 761 q 340 817 285 817 l 518 817 q 574 761 574 817 l 574 675 q 562 640 574 650 q 518 619 550 631 l 279 536 q 133 458 186 504 q 79 336 79 413 l 79 0 l 776 0 l 776 189 l 279 189 l 279 292 q 291 326 279 317 q 335 347 303 336 l 574 431 q 720 508 667 463 q 774 631 774 554 l 774 806 q 715 947 774 889 q 574 1006 657 1006 l 290 1006 q 149 947 207 1006 q 90 806 90 889 l 90 697 l 285 697 z "},"3":{"ha":844,"x_min":69,"x_max":767,"o":"m 269 300 l 269 236 q 325 181 269 181 l 511 181 q 567 236 567 181 l 567 367 q 500 422 567 422 l 310 422 l 310 600 l 500 600 q 543 612 531 600 q 556 656 556 624 l 556 764 q 500 819 556 819 l 336 819 q 281 764 281 819 l 281 700 l 81 700 l 81 806 q 139 947 81 889 q 281 1006 197 1006 l 556 1006 q 697 947 639 1006 q 756 806 756 889 l 756 661 q 668 511 756 563 q 767 361 767 464 l 767 194 q 708 53 767 111 q 567 -6 650 -6 l 269 -6 q 128 53 186 -6 q 69 194 69 111 l 69 300 l 269 300 z "},"4":{"ha":899,"x_min":32,"x_max":867,"o":"m 867 200 l 726 200 l 726 0 l 532 0 l 532 200 l 74 200 l 32 350 l 557 1000 l 726 1000 l 726 378 l 867 378 l 867 200 m 276 378 l 532 378 l 532 704 l 276 378 z "},"5":{"ha":876,"x_min":86,"x_max":790,"o":"m 763 811 l 300 811 l 300 551 l 328 578 q 486 654 408 654 l 590 654 q 732 596 674 654 q 790 454 790 538 l 790 194 q 732 53 790 111 q 590 -6 674 -6 l 286 -6 q 144 53 203 -6 q 86 194 86 111 l 86 301 l 286 301 l 286 239 q 342 183 286 183 l 535 183 q 590 239 590 183 l 590 421 q 535 476 590 476 l 467 476 q 328 439 390 476 l 300 422 l 100 481 l 100 1000 l 763 1000 l 763 811 z "},"6":{"ha":874,"x_min":86,"x_max":790,"o":"m 579 714 l 579 761 q 524 817 579 817 l 342 817 q 286 761 286 817 l 286 525 l 314 551 q 472 628 394 628 l 590 628 q 732 569 674 628 q 790 428 790 511 l 790 194 q 732 53 790 111 q 590 -6 674 -6 l 286 -6 q 144 53 203 -6 q 86 194 86 111 l 86 806 q 144 947 86 889 q 286 1006 203 1006 l 579 1006 q 721 947 663 1006 q 779 806 779 889 l 779 714 l 579 714 m 286 396 l 286 239 q 342 183 286 183 l 535 183 q 590 239 590 183 l 590 394 q 535 450 590 450 l 453 450 q 314 413 376 450 l 286 396 z "},"7":{"ha":804,"x_min":56,"x_max":769,"o":"m 769 847 l 300 0 l 81 0 l 531 811 l 56 811 l 56 1000 l 769 1000 l 769 847 z "},"8":{"ha":861,"x_min":78,"x_max":783,"o":"m 772 806 l 772 661 q 685 511 772 563 q 783 361 783 464 l 783 194 q 725 53 783 111 q 583 -6 667 -6 l 278 -6 q 136 53 194 -6 q 78 194 78 111 l 78 361 q 176 511 78 464 q 89 661 89 563 l 89 806 q 147 947 89 889 q 289 1006 206 1006 l 572 1006 q 714 947 656 1006 q 772 806 772 889 m 517 819 l 344 819 q 289 764 289 819 l 289 656 q 301 612 289 624 q 344 600 314 600 l 517 600 q 560 612 547 600 q 572 656 572 624 l 572 764 q 517 819 572 819 m 517 422 l 344 422 q 278 367 278 422 l 278 236 q 333 181 278 181 l 528 181 q 583 236 583 181 l 583 367 q 517 422 583 422 z "},"9":{"ha":874,"x_min":83,"x_max":788,"o":"m 294 286 l 294 239 q 350 183 294 183 l 532 183 q 588 239 588 183 l 588 481 l 560 454 q 401 378 479 378 l 283 378 q 142 436 200 378 q 83 578 83 494 l 83 806 q 142 947 83 889 q 283 1006 200 1006 l 588 1006 q 729 947 671 1006 q 788 806 788 889 l 788 194 q 729 53 788 111 q 588 -6 671 -6 l 294 -6 q 153 53 211 -6 q 94 194 94 111 l 94 286 l 294 286 m 588 610 l 588 761 q 532 817 588 817 l 339 817 q 283 761 283 817 l 283 611 q 339 556 283 556 l 421 556 q 560 593 497 556 l 588 610 z "}," ":{"ha":367,"x_min":0,"x_max":0,"o":""},"!":{"ha":383,"x_min":83,"x_max":300,"o":"m 260 338 l 124 338 l 83 1000 l 300 1000 l 260 338 m 289 0 l 94 0 l 94 203 l 289 203 l 289 0 z "},"\"":{"ha":633,"x_min":76,"x_max":557,"o":"m 276 1000 l 226 644 l 126 644 l 76 1000 l 276 1000 m 557 1000 l 507 644 l 407 644 l 357 1000 l 557 1000 z "},"#":{"ha":1100,"x_min":46,"x_max":1054,"o":"m 815 421 l 958 421 l 958 240 l 757 240 l 679 0 l 492 0 l 569 240 l 356 240 l 278 0 l 90 0 l 168 240 l 46 240 l 46 421 l 226 421 l 283 596 l 142 596 l 142 776 l 343 776 l 415 1000 l 603 1000 l 531 776 l 744 776 l 817 1000 l 1004 1000 l 932 776 l 1054 776 l 1054 596 l 872 596 l 815 421 m 471 596 l 414 421 l 628 421 l 685 596 l 471 596 z "},"$":{"ha":868,"x_min":82,"x_max":788,"o":"m 540 383 l 282 439 q 138 509 194 458 q 82 639 82 560 l 82 808 q 137 951 82 896 q 279 1006 192 1006 l 350 1006 l 350 1142 l 510 1142 l 510 1006 l 574 1006 q 716 951 661 1006 q 771 808 771 896 l 771 692 l 576 692 l 576 769 q 529 817 576 817 l 329 817 q 282 769 282 817 l 282 675 q 293 643 282 653 q 329 628 304 633 l 588 572 q 731 502 675 553 q 788 372 788 451 l 788 192 q 733 49 788 104 q 590 -6 678 -6 l 510 -6 l 510 -142 l 350 -142 l 350 -6 l 279 -6 q 137 49 192 -6 q 82 192 82 104 l 82 319 l 276 319 l 276 231 q 324 183 276 183 l 540 183 q 588 231 588 183 l 588 336 q 576 368 588 358 q 540 383 565 378 z "},"%":{"ha":865,"x_min":56,"x_max":811,"o":"m 144 1006 l 281 1006 q 344 981 319 1006 q 369 917 369 956 l 369 706 q 344 642 369 667 q 281 617 319 617 l 144 617 q 81 642 106 617 q 56 706 56 667 l 56 917 q 81 981 56 956 q 144 1006 106 1006 m 736 1000 l 286 0 l 125 0 l 575 1000 l 736 1000 m 268 736 l 268 886 q 249 911 268 911 l 179 911 q 157 886 157 911 l 157 736 q 179 711 157 711 l 249 711 q 268 736 268 711 m 586 383 l 722 383 q 786 358 761 383 q 811 294 811 333 l 811 83 q 786 19 811 44 q 722 -6 761 -6 l 586 -6 q 522 19 547 -6 q 497 83 497 44 l 497 294 q 522 358 497 333 q 586 383 547 383 m 710 114 l 710 264 q 690 289 710 289 l 621 289 q 599 264 599 289 l 599 114 q 621 89 599 89 l 690 89 q 710 114 710 89 z "},"&":{"ha":914,"x_min":83,"x_max":886,"o":"m 886 422 l 786 422 l 786 192 q 731 49 786 104 q 589 -6 676 -6 l 281 -6 q 138 49 193 -6 q 83 192 83 104 l 83 361 q 182 511 83 464 q 94 661 94 563 l 94 808 q 149 951 94 896 q 292 1006 204 1006 l 542 1006 q 684 951 629 1006 q 739 808 739 896 l 739 711 l 539 711 l 539 772 q 492 819 539 819 l 342 819 q 294 772 294 819 l 294 647 q 342 600 294 600 l 886 600 l 886 422 m 586 422 l 342 422 q 283 375 283 422 l 283 228 q 331 181 283 181 l 539 181 q 586 228 586 181 l 586 422 z "},"'":{"ha":353,"x_min":76,"x_max":276,"o":"m 276 1000 l 226 644 l 126 644 l 76 1000 l 276 1000 z "},"(":{"ha":543,"x_min":115,"x_max":469,"o":"m 469 900 l 363 900 q 315 853 315 900 l 315 89 q 363 42 315 42 l 469 42 l 469 -147 l 313 -147 q 170 -92 225 -147 q 115 50 115 -37 l 115 892 q 170 1034 115 979 q 313 1089 225 1089 l 469 1089 l 469 900 z "},")":{"ha":543,"x_min":74,"x_max":428,"o":"m 74 900 l 181 900 q 228 853 228 900 l 228 89 q 181 42 228 42 l 74 42 l 74 -147 l 231 -147 q 373 -92 318 -147 q 428 50 428 -37 l 428 892 q 373 1034 428 979 q 231 1089 318 1089 l 74 1089 l 74 900 z "},"*":{"ha":583,"x_min":24,"x_max":560,"o":"m 504 585 l 376 492 l 290 682 l 206 493 l 76 585 l 229 726 l 24 749 l 71 900 l 254 796 l 213 1000 l 371 1000 l 329 796 l 510 899 l 560 749 l 351 725 l 504 585 z "},"+":{"ha":706,"x_min":78,"x_max":628,"o":"m 268 253 l 268 429 l 78 429 l 78 599 l 268 599 l 268 775 l 438 775 l 438 599 l 628 599 l 628 429 l 438 429 l 438 253 l 268 253 z "},",":{"ha":347,"x_min":44,"x_max":271,"o":"m 271 203 l 271 53 q 204 -78 271 8 l 122 -186 l 44 -186 l 151 0 l 76 0 l 76 203 l 271 203 z "},"-":{"ha":642,"x_min":71,"x_max":571,"o":"m 571 547 l 571 367 l 71 367 l 71 547 l 571 547 z "},".":{"ha":347,"x_min":76,"x_max":271,"o":"m 271 0 l 76 0 l 76 203 l 271 203 l 271 0 z "},"/":{"ha":725,"x_min":19,"x_max":706,"o":"m 706 1097 l 214 -97 l 19 -97 l 511 1097 l 706 1097 z "},":":{"ha":347,"x_min":76,"x_max":271,"o":"m 271 547 l 76 547 l 76 750 l 271 750 l 271 547 m 271 0 l 76 0 l 76 203 l 271 203 l 271 0 z "},";":{"ha":347,"x_min":44,"x_max":271,"o":"m 271 547 l 76 547 l 76 750 l 271 750 l 271 547 m 271 203 l 271 53 q 204 -78 271 8 l 122 -186 l 44 -186 l 151 0 l 76 0 l 76 203 l 271 203 z "},"<":{"ha":706,"x_min":72,"x_max":617,"o":"m 72 581 l 72 428 l 617 185 l 617 357 l 258 504 l 617 653 l 617 825 l 72 581 z "},"=":{"ha":706,"x_min":78,"x_max":628,"o":"m 628 753 l 628 575 l 78 575 l 78 753 l 628 753 m 628 464 l 628 286 l 78 286 l 78 464 l 628 464 z "},">":{"ha":706,"x_min":89,"x_max":633,"o":"m 89 653 l 447 504 l 89 357 l 89 185 l 633 428 l 633 581 l 89 825 l 89 653 z "},"?":{"ha":783,"x_min":24,"x_max":735,"o":"m 221 1006 l 538 1006 q 680 951 625 1006 q 735 808 735 896 l 735 638 q 732 610 735 624 q 722 583 729 596 q 707 561 714 571 q 685 539 700 551 q 662 519 671 526 q 633 499 653 511 q 604 480 614 486 q 571 460 594 474 q 538 440 547 446 l 482 407 q 435 360 435 379 l 435 297 l 235 297 l 235 401 q 238 428 235 415 q 250 453 242 440 q 265 477 258 467 q 288 500 272 488 q 312 521 303 513 q 341 542 321 529 q 371 562 361 556 q 403 582 381 568 q 435 601 426 596 l 488 635 q 494 639 490 636 q 535 682 532 667 l 535 769 q 488 817 535 817 l 271 817 q 224 769 224 817 l 224 694 l 24 694 l 24 808 q 78 951 24 896 q 221 1006 133 1006 m 435 200 l 435 0 l 235 0 l 235 200 l 435 200 z "},"@":{"ha":1360,"x_min":113,"x_max":1247,"o":"m 310 1006 l 1050 1006 q 1192 951 1138 1006 q 1247 808 1247 896 l 1247 275 q 1192 133 1247 188 q 1050 78 1138 78 l 803 78 l 775 178 l 731 135 q 600 72 668 72 l 564 72 q 422 127 476 72 q 367 269 367 182 l 367 506 q 422 648 367 593 q 564 703 476 703 l 600 703 q 731 640 668 703 l 775 597 l 803 697 l 969 697 l 969 183 l 1050 183 q 1106 275 1106 183 l 1106 825 q 1058 872 1106 872 l 301 872 q 254 825 254 872 l 254 -47 q 301 -94 254 -94 l 1017 -94 l 1017 -228 l 310 -228 q 167 -173 222 -228 q 113 -31 113 -118 l 113 808 q 167 951 113 896 q 310 1006 222 1006 m 775 490 l 731 515 q 624 544 676 544 l 608 544 q 561 497 561 544 l 561 278 q 608 231 561 231 l 624 231 q 731 260 676 231 l 775 285 l 775 490 z "},"A":{"ha":922,"x_min":22,"x_max":900,"o":"m 296 225 l 229 0 l 22 0 l 344 1000 l 578 1000 l 900 0 l 685 0 l 619 225 l 296 225 m 460 781 l 351 414 l 565 414 l 460 781 z "},"B":{"ha":901,"x_min":110,"x_max":824,"o":"m 110 1000 l 615 1000 q 758 945 703 1000 q 813 803 813 890 l 813 661 q 725 511 813 563 q 824 361 824 464 l 824 197 q 769 55 824 110 q 626 0 714 0 l 110 0 l 110 1000 m 310 600 l 565 600 q 603 609 593 600 q 613 647 613 618 l 613 767 q 565 814 613 814 l 310 814 l 310 600 m 310 186 l 576 186 q 624 233 624 186 l 624 378 q 609 415 624 407 q 560 422 594 422 l 310 422 l 310 186 z "},"C":{"ha":865,"x_min":86,"x_max":797,"o":"m 597 647 l 597 769 q 550 817 597 817 l 333 817 q 286 769 286 817 l 286 231 q 333 183 286 183 l 550 183 q 597 231 597 183 l 597 353 l 797 353 l 797 192 q 742 49 797 104 q 600 -6 688 -6 l 283 -6 q 141 49 196 -6 q 86 192 86 104 l 86 808 q 141 951 86 896 q 283 1006 196 1006 l 600 1006 q 742 951 688 1006 q 797 808 797 896 l 797 647 l 597 647 z "},"D":{"ha":914,"x_min":110,"x_max":828,"o":"m 110 1000 l 631 1000 q 773 945 718 1000 q 828 803 828 890 l 828 197 q 773 55 828 110 q 631 0 718 0 l 110 0 l 110 1000 m 310 189 l 581 189 q 628 236 628 189 l 628 764 q 581 811 628 811 l 310 811 l 310 189 z "},"E":{"ha":831,"x_min":110,"x_max":764,"o":"m 110 1000 l 764 1000 l 764 811 l 310 811 l 310 606 l 678 606 l 678 417 l 310 417 l 310 189 l 764 189 l 764 0 l 110 0 l 110 1000 z "},"F":{"ha":806,"x_min":110,"x_max":764,"o":"m 110 0 l 110 1000 l 764 1000 l 764 811 l 310 811 l 310 597 l 678 597 l 678 408 l 310 408 l 310 0 l 110 0 z "},"G":{"ha":892,"x_min":86,"x_max":810,"o":"m 610 678 l 610 769 q 563 817 610 817 l 333 817 q 286 769 286 817 l 286 231 q 333 183 286 183 l 563 183 q 610 231 610 183 l 610 379 l 426 379 l 426 560 l 810 560 l 810 192 q 755 49 810 104 q 613 -6 700 -6 l 283 -6 q 141 49 196 -6 q 86 192 86 104 l 86 808 q 141 951 86 896 q 283 1006 196 1006 l 613 1006 q 755 951 700 1006 q 810 808 810 896 l 810 678 l 610 678 z "},"H":{"ha":964,"x_min":110,"x_max":854,"o":"m 110 0 l 110 1000 l 310 1000 l 310 606 l 654 606 l 654 1000 l 854 1000 l 854 0 l 654 0 l 654 417 l 310 417 l 310 0 l 110 0 z "},"I":{"ha":419,"x_min":110,"x_max":310,"o":"m 110 0 l 110 1000 l 310 1000 l 310 0 l 110 0 z "},"J":{"ha":817,"x_min":38,"x_max":722,"o":"m 722 1000 l 722 192 q 667 49 722 104 q 525 -6 613 -6 l 235 -6 q 92 49 147 -6 q 38 192 38 104 l 38 411 l 238 411 l 238 231 q 285 183 238 183 l 475 183 q 522 231 522 183 l 522 1000 l 722 1000 z "},"K":{"ha":924,"x_min":110,"x_max":903,"o":"m 447 435 l 307 256 l 307 0 l 110 0 l 110 1000 l 307 1000 l 307 531 l 653 1000 l 888 1000 l 581 606 l 903 0 l 678 0 l 447 435 z "},"L":{"ha":771,"x_min":110,"x_max":729,"o":"m 110 1000 l 310 1000 l 310 189 l 729 189 l 729 0 l 110 0 l 110 1000 z "},"M":{"ha":1175,"x_min":110,"x_max":1065,"o":"m 1065 1000 l 1065 0 l 876 0 l 876 667 l 660 160 l 515 160 l 299 667 l 299 0 l 110 0 l 110 1000 l 329 1000 l 588 414 l 846 1000 l 1065 1000 z "},"N":{"ha":990,"x_min":110,"x_max":881,"o":"m 693 1000 l 881 1000 l 881 0 l 665 0 l 297 682 l 297 0 l 110 0 l 110 1000 l 325 1000 l 693 318 l 693 1000 z "},"O":{"ha":901,"x_min":86,"x_max":815,"o":"m 283 1006 l 618 1006 q 760 951 706 1006 q 815 808 815 896 l 815 192 q 760 49 815 104 q 618 -6 706 -6 l 283 -6 q 141 49 196 -6 q 86 192 86 104 l 86 808 q 141 951 86 896 q 283 1006 196 1006 m 615 231 l 615 769 q 568 817 615 817 l 333 817 q 286 769 286 817 l 286 231 q 333 183 286 183 l 568 183 q 615 231 615 183 z "},"P":{"ha":869,"x_min":110,"x_max":818,"o":"m 110 1000 l 621 1000 q 763 945 708 1000 q 818 803 818 890 l 818 550 q 763 408 818 463 q 621 353 708 353 l 310 353 l 310 0 l 110 0 l 110 1000 m 310 542 l 571 542 q 618 589 618 542 l 618 764 q 571 811 618 811 l 310 811 l 310 542 z "},"Q":{"ha":907,"x_min":86,"x_max":821,"o":"m 283 1006 l 624 1006 q 766 951 711 1006 q 821 808 821 896 l 821 192 q 766 49 821 104 q 624 -6 711 -6 l 554 -6 l 554 -178 l 354 -178 l 354 -6 l 283 -6 q 141 49 196 -6 q 86 192 86 104 l 86 808 q 141 951 86 896 q 283 1006 196 1006 m 621 233 l 621 767 q 574 814 621 814 l 333 814 q 286 767 286 814 l 286 233 q 333 186 286 186 l 574 186 q 621 233 621 186 z "},"R":{"ha":903,"x_min":110,"x_max":847,"o":"m 847 0 l 632 0 l 471 371 l 310 371 l 310 0 l 110 0 l 110 1000 l 619 1000 q 762 945 707 1000 q 817 803 817 890 l 817 568 q 780 447 817 497 q 681 379 743 397 l 847 0 m 617 604 l 617 764 q 569 811 617 811 l 310 811 l 310 557 l 569 557 q 617 604 617 557 z "},"S":{"ha":868,"x_min":82,"x_max":788,"o":"m 576 692 l 576 769 q 529 817 576 817 l 329 817 q 282 769 282 817 l 282 675 q 293 643 282 653 q 329 628 304 633 l 588 572 q 731 502 675 553 q 788 372 788 451 l 788 192 q 733 49 788 104 q 590 -6 678 -6 l 279 -6 q 137 49 192 -6 q 82 192 82 104 l 82 319 l 276 319 l 276 231 q 324 183 276 183 l 540 183 q 588 231 588 183 l 588 336 q 576 368 588 358 q 540 383 565 378 l 282 439 q 138 509 194 458 q 82 639 82 560 l 82 808 q 137 951 82 896 q 279 1006 192 1006 l 574 1006 q 716 951 661 1006 q 771 808 771 896 l 771 692 l 576 692 z "},"T":{"ha":792,"x_min":35,"x_max":757,"o":"m 757 814 l 496 814 l 496 0 l 296 0 l 296 814 l 35 814 l 35 1000 l 757 1000 l 757 814 z "},"U":{"ha":903,"x_min":94,"x_max":808,"o":"m 808 1000 l 808 192 q 753 49 808 104 q 611 -6 699 -6 l 292 -6 q 149 49 204 -6 q 94 192 94 104 l 94 1000 l 294 1000 l 294 231 q 342 183 294 183 l 561 183 q 608 231 608 183 l 608 1000 l 808 1000 z "},"V":{"ha":892,"x_min":25,"x_max":867,"o":"m 867 1000 l 563 0 l 329 0 l 25 1000 l 253 1000 l 446 240 l 644 1000 l 867 1000 z "},"W":{"ha":1261,"x_min":25,"x_max":1236,"o":"m 988 0 l 799 0 l 635 658 l 471 0 l 274 0 l 25 1000 l 239 1000 l 375 269 l 556 1000 l 714 1000 l 894 269 l 1031 1000 l 1236 1000 l 988 0 z "},"X":{"ha":878,"x_min":19,"x_max":858,"o":"m 431 331 l 238 0 l 19 0 l 319 513 l 28 1000 l 261 1000 l 447 685 l 632 1000 l 850 1000 l 560 500 l 858 0 l 625 0 l 431 331 z "},"Y":{"ha":833,"x_min":8,"x_max":825,"o":"m 517 0 l 317 0 l 317 346 l 8 1000 l 228 1000 l 417 572 l 606 1000 l 825 1000 l 517 346 l 517 0 z "},"Z":{"ha":831,"x_min":64,"x_max":767,"o":"m 64 153 l 514 814 l 89 814 l 89 1000 l 767 1000 l 767 847 l 317 186 l 764 186 l 764 0 l 64 0 l 64 153 z "},"[":{"ha":529,"x_min":115,"x_max":456,"o":"m 315 900 l 315 42 l 456 42 l 456 -147 l 115 -147 l 115 1089 l 456 1089 l 456 900 l 315 900 z "},"\\":{"ha":725,"x_min":19,"x_max":706,"o":"m 706 -97 l 511 -97 l 19 1097 l 214 1097 l 706 -97 z "},"]":{"ha":529,"x_min":74,"x_max":414,"o":"m 74 1089 l 414 1089 l 414 -147 l 74 -147 l 74 42 l 214 42 l 214 900 l 74 900 l 74 1089 z "},"^":{"ha":989,"x_min":92,"x_max":897,"o":"m 392 1000 l 597 1000 l 897 400 l 694 400 l 494 800 l 294 400 l 92 400 l 392 1000 z "},"_":{"ha":800,"x_min":8,"x_max":792,"o":"m 792 -61 l 792 -236 l 8 -236 l 8 -61 l 792 -61 z "},"`":{"ha":576,"x_min":111,"x_max":465,"o":"m 318 1092 l 465 1092 l 340 1292 l 111 1292 l 318 1092 z "},"a":{"ha":922,"x_min":22,"x_max":900,"o":"m 296 225 l 229 0 l 22 0 l 344 1000 l 578 1000 l 900 0 l 685 0 l 619 225 l 296 225 m 460 781 l 351 414 l 565 414 l 460 781 z "},"b":{"ha":901,"x_min":110,"x_max":824,"o":"m 110 1000 l 615 1000 q 758 945 703 1000 q 813 803 813 890 l 813 661 q 725 511 813 563 q 824 361 824 464 l 824 197 q 769 55 824 110 q 626 0 714 0 l 110 0 l 110 1000 m 310 600 l 565 600 q 603 609 593 600 q 613 647 613 618 l 613 767 q 565 814 613 814 l 310 814 l 310 600 m 310 186 l 576 186 q 624 233 624 186 l 624 378 q 609 415 624 407 q 560 422 594 422 l 310 422 l 310 186 z "},"c":{"ha":865,"x_min":86,"x_max":797,"o":"m 597 647 l 597 769 q 550 817 597 817 l 333 817 q 286 769 286 817 l 286 231 q 333 183 286 183 l 550 183 q 597 231 597 183 l 597 353 l 797 353 l 797 192 q 742 49 797 104 q 600 -6 688 -6 l 283 -6 q 141 49 196 -6 q 86 192 86 104 l 86 808 q 141 951 86 896 q 283 1006 196 1006 l 600 1006 q 742 951 688 1006 q 797 808 797 896 l 797 647 l 597 647 z "},"d":{"ha":914,"x_min":110,"x_max":828,"o":"m 110 1000 l 631 1000 q 773 945 718 1000 q 828 803 828 890 l 828 197 q 773 55 828 110 q 631 0 718 0 l 110 0 l 110 1000 m 310 189 l 581 189 q 628 236 628 189 l 628 764 q 581 811 628 811 l 310 811 l 310 189 z "},"e":{"ha":831,"x_min":110,"x_max":764,"o":"m 110 1000 l 764 1000 l 764 811 l 310 811 l 310 606 l 678 606 l 678 417 l 310 417 l 310 189 l 764 189 l 764 0 l 110 0 l 110 1000 z "},"f":{"ha":806,"x_min":110,"x_max":764,"o":"m 110 0 l 110 1000 l 764 1000 l 764 811 l 310 811 l 310 597 l 678 597 l 678 408 l 310 408 l 310 0 l 110 0 z "},"g":{"ha":892,"x_min":86,"x_max":810,"o":"m 610 678 l 610 769 q 563 817 610 817 l 333 817 q 286 769 286 817 l 286 231 q 333 183 286 183 l 563 183 q 610 231 610 183 l 610 379 l 426 379 l 426 560 l 810 560 l 810 192 q 755 49 810 104 q 613 -6 700 -6 l 283 -6 q 141 49 196 -6 q 86 192 86 104 l 86 808 q 141 951 86 896 q 283 1006 196 1006 l 613 1006 q 755 951 700 1006 q 810 808 810 896 l 810 678 l 610 678 z "},"h":{"ha":964,"x_min":110,"x_max":854,"o":"m 110 0 l 110 1000 l 310 1000 l 310 606 l 654 606 l 654 1000 l 854 1000 l 854 0 l 654 0 l 654 417 l 310 417 l 310 0 l 110 0 z "},"i":{"ha":419,"x_min":110,"x_max":310,"o":"m 110 0 l 110 1000 l 310 1000 l 310 0 l 110 0 z "},"j":{"ha":817,"x_min":38,"x_max":722,"o":"m 722 1000 l 722 192 q 667 49 722 104 q 525 -6 613 -6 l 235 -6 q 92 49 147 -6 q 38 192 38 104 l 38 411 l 238 411 l 238 231 q 285 183 238 183 l 475 183 q 522 231 522 183 l 522 1000 l 722 1000 z "},"k":{"ha":924,"x_min":110,"x_max":903,"o":"m 447 435 l 307 256 l 307 0 l 110 0 l 110 1000 l 307 1000 l 307 531 l 653 1000 l 888 1000 l 581 606 l 903 0 l 678 0 l 447 435 z "},"l":{"ha":771,"x_min":110,"x_max":729,"o":"m 110 1000 l 310 1000 l 310 189 l 729 189 l 729 0 l 110 0 l 110 1000 z "},"m":{"ha":1175,"x_min":110,"x_max":1065,"o":"m 1065 1000 l 1065 0 l 876 0 l 876 667 l 660 160 l 515 160 l 299 667 l 299 0 l 110 0 l 110 1000 l 329 1000 l 588 414 l 846 1000 l 1065 1000 z "},"n":{"ha":990,"x_min":110,"x_max":881,"o":"m 693 1000 l 881 1000 l 881 0 l 665 0 l 297 682 l 297 0 l 110 0 l 110 1000 l 325 1000 l 693 318 l 693 1000 z "},"o":{"ha":901,"x_min":86,"x_max":815,"o":"m 283 1006 l 618 1006 q 760 951 706 1006 q 815 808 815 896 l 815 192 q 760 49 815 104 q 618 -6 706 -6 l 283 -6 q 141 49 196 -6 q 86 192 86 104 l 86 808 q 141 951 86 896 q 283 1006 196 1006 m 615 231 l 615 769 q 568 817 615 817 l 333 817 q 286 769 286 817 l 286 231 q 333 183 286 183 l 568 183 q 615 231 615 183 z "},"p":{"ha":869,"x_min":110,"x_max":818,"o":"m 110 1000 l 621 1000 q 763 945 708 1000 q 818 803 818 890 l 818 550 q 763 408 818 463 q 621 353 708 353 l 310 353 l 310 0 l 110 0 l 110 1000 m 310 542 l 571 542 q 618 589 618 542 l 618 764 q 571 811 618 811 l 310 811 l 310 542 z "},"q":{"ha":907,"x_min":86,"x_max":821,"o":"m 283 1006 l 624 1006 q 766 951 711 1006 q 821 808 821 896 l 821 192 q 766 49 821 104 q 624 -6 711 -6 l 554 -6 l 554 -178 l 354 -178 l 354 -6 l 283 -6 q 141 49 196 -6 q 86 192 86 104 l 86 808 q 141 951 86 896 q 283 1006 196 1006 m 621 233 l 621 767 q 574 814 621 814 l 333 814 q 286 767 286 814 l 286 233 q 333 186 286 186 l 574 186 q 621 233 621 186 z "},"r":{"ha":903,"x_min":110,"x_max":847,"o":"m 847 0 l 632 0 l 471 371 l 310 371 l 310 0 l 110 0 l 110 1000 l 619 1000 q 762 945 707 1000 q 817 803 817 890 l 817 568 q 780 447 817 497 q 681 379 743 397 l 847 0 m 617 604 l 617 764 q 569 811 617 811 l 310 811 l 310 557 l 569 557 q 617 604 617 557 z "},"s":{"ha":868,"x_min":82,"x_max":788,"o":"m 576 692 l 576 769 q 529 817 576 817 l 329 817 q 282 769 282 817 l 282 675 q 293 643 282 653 q 329 628 304 633 l 588 572 q 731 502 675 553 q 788 372 788 451 l 788 192 q 733 49 788 104 q 590 -6 678 -6 l 279 -6 q 137 49 192 -6 q 82 192 82 104 l 82 319 l 276 319 l 276 231 q 324 183 276 183 l 540 183 q 588 231 588 183 l 588 336 q 576 368 588 358 q 540 383 565 378 l 282 439 q 138 509 194 458 q 82 639 82 560 l 82 808 q 137 951 82 896 q 279 1006 192 1006 l 574 1006 q 716 951 661 1006 q 771 808 771 896 l 771 692 l 576 692 z "},"t":{"ha":792,"x_min":35,"x_max":757,"o":"m 757 814 l 496 814 l 496 0 l 296 0 l 296 814 l 35 814 l 35 1000 l 757 1000 l 757 814 z "},"u":{"ha":903,"x_min":94,"x_max":808,"o":"m 808 1000 l 808 192 q 753 49 808 104 q 611 -6 699 -6 l 292 -6 q 149 49 204 -6 q 94 192 94 104 l 94 1000 l 294 1000 l 294 231 q 342 183 294 183 l 561 183 q 608 231 608 183 l 608 1000 l 808 1000 z "},"v":{"ha":892,"x_min":25,"x_max":867,"o":"m 867 1000 l 563 0 l 329 0 l 25 1000 l 253 1000 l 446 240 l 644 1000 l 867 1000 z "},"w":{"ha":1261,"x_min":25,"x_max":1236,"o":"m 988 0 l 799 0 l 635 658 l 471 0 l 274 0 l 25 1000 l 239 1000 l 375 269 l 556 1000 l 714 1000 l 894 269 l 1031 1000 l 1236 1000 l 988 0 z "},"x":{"ha":878,"x_min":19,"x_max":858,"o":"m 431 331 l 238 0 l 19 0 l 319 513 l 28 1000 l 261 1000 l 447 685 l 632 1000 l 850 1000 l 560 500 l 858 0 l 625 0 l 431 331 z "},"y":{"ha":833,"x_min":8,"x_max":825,"o":"m 517 0 l 317 0 l 317 346 l 8 1000 l 228 1000 l 417 572 l 606 1000 l 825 1000 l 517 346 l 517 0 z "},"z":{"ha":831,"x_min":64,"x_max":767,"o":"m 64 153 l 514 814 l 89 814 l 89 1000 l 767 1000 l 767 847 l 317 186 l 764 186 l 764 0 l 64 0 l 64 153 z "},"{":{"ha":628,"x_min":60,"x_max":554,"o":"m 400 853 l 400 603 q 325 475 400 524 q 400 347 400 426 l 400 89 q 447 42 400 42 l 554 42 l 554 -147 l 397 -147 q 255 -92 310 -147 q 200 50 200 -37 l 200 342 q 153 389 200 389 l 60 389 l 60 561 l 153 561 q 200 608 200 561 l 200 892 q 255 1034 200 979 q 397 1089 310 1089 l 554 1089 l 554 900 l 447 900 q 400 853 400 900 z "},"|":{"ha":489,"x_min":153,"x_max":336,"o":"m 153 1093 l 336 1093 l 336 -300 l 153 -300 l 153 1093 z "},"}":{"ha":628,"x_min":74,"x_max":568,"o":"m 228 603 l 228 853 q 181 900 228 900 l 74 900 l 74 1089 l 231 1089 q 373 1034 318 1089 q 428 892 428 979 l 428 608 q 475 561 428 561 l 568 561 l 568 389 l 475 389 q 428 342 428 389 l 428 50 q 373 -92 428 -37 q 231 -147 318 -147 l 74 -147 l 74 42 l 181 42 q 228 89 228 42 l 228 347 q 303 475 228 426 q 228 603 228 524 z "},"~":{"ha":706,"x_min":96,"x_max":610,"o":"m 199 360 l 229 425 l 471 369 q 554 411 533 354 l 610 558 l 504 558 l 474 496 l 233 549 q 149 506 169 564 l 96 360 l 199 360 z "},"¡":{"ha":383,"x_min":83,"x_max":300,"o":"m 94 750 l 289 750 l 289 547 l 94 547 l 94 750 m 124 413 l 260 413 l 300 -250 l 83 -250 l 124 413 z "},"¢":{"ha":783,"x_min":79,"x_max":707,"o":"m 479 703 l 307 703 q 260 656 260 703 l 260 353 q 307 306 260 306 l 479 306 q 526 353 526 306 l 526 422 l 707 422 l 707 331 q 652 188 707 243 q 510 133 597 133 l 479 133 l 479 0 l 315 0 l 315 133 l 276 133 q 134 188 189 133 q 79 331 79 243 l 79 678 q 134 820 79 765 q 276 875 189 875 l 315 875 l 315 1000 l 479 1000 l 479 875 l 510 875 q 652 820 597 875 q 707 678 707 765 l 707 586 l 526 586 l 526 656 q 479 703 526 703 z "},"£":{"ha":871,"x_min":35,"x_max":800,"o":"m 800 0 l 35 0 l 35 189 l 107 189 q 149 231 149 189 l 149 390 l 35 390 l 35 576 l 149 576 l 149 806 q 202 953 149 900 q 349 1006 256 1006 l 594 1006 q 742 953 689 1006 q 794 806 794 900 l 794 678 l 594 678 l 594 769 q 547 817 594 817 l 396 817 q 349 769 349 817 l 349 576 l 549 576 l 549 390 l 349 390 l 349 189 l 800 189 l 800 0 z "},"¤":{"ha":835,"x_min":24,"x_max":811,"o":"m 704 622 l 704 400 q 694 332 704 361 l 811 215 l 693 96 l 575 214 q 510 206 546 206 l 325 206 q 260 214 289 206 l 142 96 l 24 215 l 140 332 q 131 400 131 361 l 131 622 q 139 688 131 658 l 24 803 l 142 922 l 257 807 q 325 817 286 817 l 510 817 q 578 807 549 817 l 693 922 l 811 803 l 696 688 q 704 622 704 658 m 535 411 l 535 611 q 488 658 535 658 l 347 658 q 300 611 300 658 l 300 411 q 347 364 300 364 l 488 364 q 535 411 535 364 z "},"¥":{"ha":833,"x_min":8,"x_max":825,"o":"m 729 469 l 729 372 l 529 372 l 517 346 l 517 311 l 729 311 l 729 214 l 517 214 l 517 0 l 317 0 l 317 214 l 104 214 l 104 311 l 317 311 l 317 346 l 304 372 l 104 372 l 104 469 l 258 469 l 8 1000 l 228 1000 l 417 572 l 606 1000 l 825 1000 l 575 469 l 729 469 z "},"¦":{"ha":489,"x_min":153,"x_max":336,"o":"m 153 1093 l 336 1093 l 336 543 l 153 543 l 153 1093 m 336 -300 l 153 -300 l 153 250 l 336 250 l 336 -300 z "},"§":{"ha":746,"x_min":65,"x_max":681,"o":"m 474 739 l 474 800 q 429 844 474 844 l 318 844 q 274 800 274 844 l 274 754 q 318 710 274 717 l 519 676 q 635 621 589 664 q 681 515 681 578 l 681 385 q 624 260 681 325 q 631 252 625 258 q 638 243 636 246 q 645 235 640 240 q 652 226 650 229 q 658 216 654 222 q 663 205 661 210 q 667 194 665 200 q 670 181 669 188 q 671 167 671 174 l 671 64 q 615 -75 671 -19 q 476 -131 560 -131 l 260 -131 q 121 -75 176 -131 q 65 64 65 -19 l 65 149 l 254 149 l 254 83 q 299 39 254 39 l 438 39 q 482 83 482 39 l 482 133 q 438 178 482 171 l 236 211 q 121 267 167 224 q 75 372 75 310 l 75 492 q 138 622 75 560 q 85 721 85 672 l 85 811 q 140 950 85 894 q 279 1006 196 1006 l 468 1006 q 607 950 551 1006 q 663 811 663 894 l 663 739 l 474 739 m 308 361 l 454 338 q 481 350 471 338 q 492 382 492 363 l 492 482 q 447 526 492 519 l 300 551 q 264 506 264 551 l 264 406 q 308 361 264 368 z "},"¨":{"ha":889,"x_min":219,"x_max":669,"o":"m 389 1097 l 219 1097 l 219 1269 l 389 1269 l 389 1097 m 669 1097 l 500 1097 l 500 1269 l 669 1269 l 669 1097 z "},"©":{"ha":1176,"x_min":113,"x_max":1064,"o":"m 310 1006 l 867 1006 q 1009 951 954 1006 q 1064 808 1064 896 l 1064 192 q 1009 49 1064 104 q 867 -6 954 -6 l 310 -6 q 167 49 222 -6 q 113 192 113 104 l 113 808 q 167 951 113 896 q 310 1006 222 1006 m 936 192 l 936 808 q 917 865 936 843 q 867 886 899 886 l 310 886 q 259 865 278 886 q 240 808 240 843 l 240 192 q 259 135 240 157 q 310 114 278 114 l 867 114 q 917 135 899 114 q 936 192 936 157 m 494 814 l 683 814 q 787 776 749 814 q 825 672 825 738 l 825 578 l 681 578 l 681 644 q 647 678 681 678 l 531 678 q 497 644 497 678 l 497 356 q 531 322 497 322 l 647 322 q 681 356 681 322 l 681 422 l 825 422 l 825 328 q 787 224 825 263 q 683 186 749 186 l 494 186 q 391 224 429 186 q 353 328 353 263 l 353 672 q 391 776 353 738 q 494 814 429 814 z "},"ª":{"ha":539,"x_min":65,"x_max":474,"o":"m 210 1003 l 343 1003 q 436 965 399 1003 q 474 872 474 928 l 474 513 l 350 513 l 350 581 l 321 549 q 238 508 281 508 l 192 508 q 101 545 138 508 q 65 635 65 582 l 65 683 q 99 775 65 742 q 192 808 133 808 l 211 808 q 350 792 286 808 l 350 857 q 317 892 350 892 l 238 892 q 203 857 203 892 l 203 847 l 81 847 l 81 872 q 118 965 81 928 q 210 1003 156 1003 m 351 724 l 217 724 q 189 696 189 724 l 189 650 q 218 622 189 622 l 251 622 q 326 640 286 622 l 351 653 l 351 724 m 474 438 l 474 331 l 76 331 l 76 438 l 474 438 z "},"«":{"ha":742,"x_min":21,"x_max":710,"o":"m 399 776 l 194 488 l 399 200 l 199 200 l 21 451 l 21 524 l 199 776 l 399 776 m 710 776 l 506 488 l 710 200 l 510 200 l 332 451 l 332 524 l 510 776 l 710 776 z "},"®":{"ha":567,"x_min":69,"x_max":497,"o":"m 158 1006 l 394 1006 q 469 980 440 1006 q 497 917 497 954 l 497 575 q 471 513 497 539 q 408 486 444 486 l 158 486 q 96 513 122 486 q 69 575 69 539 l 69 917 q 96 979 69 953 q 158 1006 122 1006 m 446 575 l 446 917 q 394 956 446 956 l 158 956 q 130 944 139 956 q 121 917 121 932 l 121 575 q 130 548 121 560 q 158 536 139 536 l 408 536 q 437 548 428 536 q 446 575 446 560 m 390 838 l 390 774 q 343 714 390 721 l 394 594 l 338 594 l 288 714 l 232 714 l 232 594 l 179 594 l 179 897 l 331 897 q 390 838 390 897 m 233 764 l 324 764 q 338 778 338 764 l 338 832 q 324 847 338 847 l 233 847 l 233 764 z "},"¯":{"ha":850,"x_min":222,"x_max":606,"o":"m 606 1261 l 606 1106 l 222 1106 l 222 1261 l 606 1261 z "},"°":{"ha":447,"x_min":79,"x_max":368,"o":"m 293 706 l 154 706 q 101 727 122 706 q 79 781 79 749 l 79 928 q 101 981 79 960 q 154 1003 122 1003 l 293 1003 q 347 981 325 1003 q 368 928 368 960 l 368 781 q 347 727 368 749 q 293 706 325 706 m 163 914 l 163 794 q 179 778 163 778 l 268 778 q 285 794 285 778 l 285 914 q 268 931 285 931 l 179 931 q 163 914 163 931 z "},"±":{"ha":706,"x_min":78,"x_max":628,"o":"m 268 354 l 268 531 l 78 531 l 78 700 l 268 700 l 268 876 l 438 876 l 438 700 l 628 700 l 628 531 l 438 531 l 438 354 l 268 354 m 78 278 l 628 278 l 628 111 l 78 111 l 78 278 z "},"´":{"ha":576,"x_min":111,"x_max":465,"o":"m 258 1092 l 111 1092 l 236 1292 l 465 1292 l 258 1092 z "},"¶":{"ha":1160,"x_min":69,"x_max":1050,"o":"m 1050 0 l 850 0 l 850 811 l 728 811 l 728 0 l 528 0 l 528 356 l 267 356 q 124 410 179 356 q 69 553 69 465 l 69 803 q 124 945 69 890 q 267 1000 179 1000 l 1050 1000 l 1050 0 z "},"·":{"ha":347,"x_min":76,"x_max":271,"o":"m 271 361 l 76 361 l 76 564 l 271 564 l 271 361 z "},"¸":{"ha":785,"x_min":235,"x_max":550,"o":"m 304 -289 l 235 -208 l 417 -208 q 433 -186 433 -208 l 433 -172 q 417 -150 433 -150 l 260 -150 l 329 0 l 432 0 l 397 -69 l 433 -69 q 519 -96 488 -69 q 550 -172 550 -122 l 550 -186 q 519 -262 550 -236 q 433 -289 488 -289 l 304 -289 z "},"º":{"ha":539,"x_min":65,"x_max":474,"o":"m 193 1003 l 346 1003 q 437 966 400 1003 q 474 876 474 929 l 474 635 q 437 544 474 581 q 346 508 400 508 l 193 508 q 102 544 139 508 q 65 635 65 581 l 65 876 q 102 966 65 929 q 193 1003 139 1003 m 350 649 l 350 860 q 322 890 350 890 l 215 890 q 189 860 189 890 l 189 649 q 215 621 189 621 l 322 621 q 350 649 350 621 m 463 438 l 463 331 l 76 331 l 76 438 l 463 438 z "},"»":{"ha":742,"x_min":21,"x_max":710,"o":"m 399 524 l 399 451 l 221 200 l 21 200 l 225 488 l 21 776 l 221 776 l 399 524 m 710 524 l 710 451 l 532 200 l 332 200 l 536 488 l 332 776 l 532 776 l 710 524 z "},"¿":{"ha":783,"x_min":49,"x_max":760,"o":"m 349 550 l 349 750 l 549 750 l 549 550 l 349 550 m 563 -256 l 246 -256 q 103 -201 158 -256 q 49 -58 49 -146 l 49 113 q 51 140 49 126 q 62 167 54 154 q 76 189 69 179 q 98 211 83 199 q 122 231 113 224 q 150 251 131 239 q 179 270 169 264 q 213 290 189 276 q 246 310 236 304 l 301 343 q 349 390 349 371 l 349 453 l 549 453 l 549 349 q 545 322 549 335 q 533 297 542 310 q 518 273 525 283 q 496 250 511 263 q 472 229 481 238 q 442 208 463 221 q 413 188 422 194 q 380 168 403 182 q 349 149 357 154 l 296 115 q 250 78 256 90 q 249 68 249 74 l 249 -19 q 296 -67 249 -67 l 513 -67 q 560 -19 560 -67 l 560 56 l 760 56 l 760 -58 q 705 -201 760 -146 q 563 -256 650 -256 z "},"À":{"ha":922,"x_min":22,"x_max":900,"o":"m 418 1092 l 565 1092 l 440 1292 l 211 1292 l 418 1092 m 296 225 l 229 0 l 22 0 l 344 1000 l 578 1000 l 900 0 l 685 0 l 619 225 l 296 225 m 460 781 l 351 414 l 565 414 l 460 781 z "},"Á":{"ha":922,"x_min":22,"x_max":900,"o":"m 504 1092 l 357 1092 l 482 1292 l 711 1292 l 504 1092 m 296 225 l 229 0 l 22 0 l 344 1000 l 578 1000 l 900 0 l 685 0 l 619 225 l 296 225 m 460 781 l 351 414 l 565 414 l 460 781 z "},"Â":{"ha":922,"x_min":22,"x_max":900,"o":"m 343 1092 l 461 1188 l 579 1092 l 739 1092 l 544 1272 l 378 1272 l 183 1092 l 343 1092 m 296 225 l 229 0 l 22 0 l 344 1000 l 578 1000 l 900 0 l 685 0 l 619 225 l 296 225 m 460 781 l 351 414 l 565 414 l 460 781 z "},"Ã":{"ha":922,"x_min":22,"x_max":900,"o":"m 336 1092 l 361 1149 l 567 1093 q 647 1129 635 1075 l 678 1263 l 586 1263 l 560 1208 l 357 1261 q 275 1224 286 1279 l 247 1092 l 336 1092 m 296 225 l 229 0 l 22 0 l 344 1000 l 578 1000 l 900 0 l 685 0 l 619 225 l 296 225 m 460 781 l 351 414 l 565 414 l 460 781 z "},"Ä":{"ha":922,"x_min":22,"x_max":900,"o":"m 406 1097 l 236 1097 l 236 1269 l 406 1269 l 406 1097 m 686 1097 l 517 1097 l 517 1269 l 686 1269 l 686 1097 m 296 225 l 229 0 l 22 0 l 344 1000 l 578 1000 l 900 0 l 685 0 l 619 225 l 296 225 m 460 781 l 351 414 l 565 414 l 460 781 z "},"Å":{"ha":922,"x_min":22,"x_max":900,"o":"m 547 1092 l 375 1092 q 342 1106 357 1092 q 328 1139 328 1121 l 328 1286 q 342 1319 328 1304 q 375 1333 357 1333 l 547 1333 q 580 1319 565 1333 q 594 1286 594 1304 l 594 1139 q 580 1106 594 1121 q 547 1092 565 1092 m 406 1247 l 406 1178 q 422 1161 406 1161 l 500 1161 q 517 1178 517 1161 l 517 1247 q 500 1264 517 1264 l 422 1264 q 406 1247 406 1264 m 296 225 l 229 0 l 22 0 l 344 1000 l 578 1000 l 900 0 l 685 0 l 619 225 l 296 225 m 460 781 l 351 414 l 565 414 l 460 781 z "},"Æ":{"ha":1408,"x_min":4,"x_max":1342,"o":"m 888 611 l 1256 611 l 1256 422 l 888 422 l 888 189 l 1342 189 l 1342 0 l 688 0 l 688 225 l 339 225 l 231 0 l 4 0 l 508 1000 l 1342 1000 l 1342 811 l 888 811 l 888 611 m 688 808 l 618 808 l 429 414 l 688 414 l 688 808 z "},"Ç":{"ha":865,"x_min":86,"x_max":797,"o":"m 597 647 l 597 769 q 550 817 597 817 l 333 817 q 286 769 286 817 l 286 231 q 333 183 286 183 l 550 183 q 597 231 597 183 l 597 353 l 797 353 l 797 192 q 742 49 797 104 q 600 -6 688 -6 l 493 -6 l 461 -69 l 497 -69 q 583 -96 551 -69 q 614 -172 614 -122 l 614 -186 q 583 -262 614 -236 q 497 -289 551 -289 l 368 -289 l 299 -208 l 481 -208 q 497 -186 497 -208 l 497 -172 q 481 -150 497 -150 l 324 -150 l 390 -6 l 283 -6 q 141 49 196 -6 q 86 192 86 104 l 86 808 q 141 951 86 896 q 283 1006 196 1006 l 600 1006 q 742 951 688 1006 q 797 808 797 896 l 797 647 l 597 647 z "},"È":{"ha":831,"x_min":110,"x_max":764,"o":"m 394 1092 l 542 1092 l 417 1292 l 188 1292 l 394 1092 m 110 1000 l 764 1000 l 764 811 l 310 811 l 310 606 l 678 606 l 678 417 l 310 417 l 310 189 l 764 189 l 764 0 l 110 0 l 110 1000 z "},"É":{"ha":831,"x_min":110,"x_max":764,"o":"m 481 1092 l 333 1092 l 458 1292 l 688 1292 l 481 1092 m 110 1000 l 764 1000 l 764 811 l 310 811 l 310 606 l 678 606 l 678 417 l 310 417 l 310 189 l 764 189 l 764 0 l 110 0 l 110 1000 z "},"Ê":{"ha":831,"x_min":110,"x_max":764,"o":"m 319 1092 l 438 1188 l 556 1092 l 715 1092 l 521 1272 l 354 1272 l 160 1092 l 319 1092 m 110 1000 l 764 1000 l 764 811 l 310 811 l 310 606 l 678 606 l 678 417 l 310 417 l 310 189 l 764 189 l 764 0 l 110 0 l 110 1000 z "},"Ë":{"ha":831,"x_min":110,"x_max":764,"o":"m 382 1097 l 213 1097 l 213 1269 l 382 1269 l 382 1097 m 663 1097 l 493 1097 l 493 1269 l 663 1269 l 663 1097 m 110 1000 l 764 1000 l 764 811 l 310 811 l 310 606 l 678 606 l 678 417 l 310 417 l 310 189 l 764 189 l 764 0 l 110 0 l 110 1000 z "},"Ì":{"ha":419,"x_min":-40,"x_max":314,"o":"m 167 1092 l 314 1092 l 189 1292 l -40 1292 l 167 1092 m 110 0 l 110 1000 l 310 1000 l 310 0 l 110 0 z "},"Í":{"ha":419,"x_min":106,"x_max":460,"o":"m 253 1092 l 106 1092 l 231 1292 l 460 1292 l 253 1092 m 110 0 l 110 1000 l 310 1000 l 310 0 l 110 0 z "},"Î":{"ha":419,"x_min":-68,"x_max":488,"o":"m 92 1092 l 210 1188 l 328 1092 l 488 1092 l 293 1272 l 126 1272 l -68 1092 l 92 1092 m 110 0 l 110 1000 l 310 1000 l 310 0 l 110 0 z "},"Ï":{"ha":419,"x_min":-15,"x_max":435,"o":"m 154 1097 l -15 1097 l -15 1269 l 154 1269 l 154 1097 m 435 1097 l 265 1097 l 265 1269 l 435 1269 l 435 1097 m 110 0 l 110 1000 l 310 1000 l 310 0 l 110 0 z "},"Ð":{"ha":903,"x_min":-1,"x_max":817,"o":"m 99 1000 l 619 1000 q 762 945 707 1000 q 817 803 817 890 l 817 197 q 762 55 817 110 q 619 0 707 0 l 99 0 l 99 408 l -1 408 l -1 597 l 99 597 l 99 1000 m 617 236 l 617 764 q 569 811 617 811 l 299 811 l 299 597 l 399 597 l 399 408 l 299 408 l 299 189 l 569 189 q 617 236 617 189 z "},"Ñ":{"ha":990,"x_min":110,"x_max":881,"o":"m 371 1092 l 396 1149 l 601 1093 q 682 1129 669 1075 l 713 1263 l 621 1263 l 594 1208 l 392 1261 q 310 1224 321 1279 l 282 1092 l 371 1092 m 693 1000 l 881 1000 l 881 0 l 665 0 l 297 682 l 297 0 l 110 0 l 110 1000 l 325 1000 l 693 318 l 693 1000 z "},"Ò":{"ha":901,"x_min":86,"x_max":815,"o":"m 408 1092 l 556 1092 l 431 1292 l 201 1292 l 408 1092 m 283 1006 l 618 1006 q 760 951 706 1006 q 815 808 815 896 l 815 192 q 760 49 815 104 q 618 -6 706 -6 l 283 -6 q 141 49 196 -6 q 86 192 86 104 l 86 808 q 141 951 86 896 q 283 1006 196 1006 m 615 231 l 615 769 q 568 817 615 817 l 333 817 q 286 769 286 817 l 286 231 q 333 183 286 183 l 568 183 q 615 231 615 183 z "},"Ó":{"ha":901,"x_min":86,"x_max":815,"o":"m 494 1092 l 347 1092 l 472 1292 l 701 1292 l 494 1092 m 283 1006 l 618 1006 q 760 951 706 1006 q 815 808 815 896 l 815 192 q 760 49 815 104 q 618 -6 706 -6 l 283 -6 q 141 49 196 -6 q 86 192 86 104 l 86 808 q 141 951 86 896 q 283 1006 196 1006 m 615 231 l 615 769 q 568 817 615 817 l 333 817 q 286 769 286 817 l 286 231 q 333 183 286 183 l 568 183 q 615 231 615 183 z "},"Ô":{"ha":901,"x_min":86,"x_max":815,"o":"m 333 1092 l 451 1188 l 569 1092 l 729 1092 l 535 1272 l 368 1272 l 174 1092 l 333 1092 m 283 1006 l 618 1006 q 760 951 706 1006 q 815 808 815 896 l 815 192 q 760 49 815 104 q 618 -6 706 -6 l 283 -6 q 141 49 196 -6 q 86 192 86 104 l 86 808 q 141 951 86 896 q 283 1006 196 1006 m 615 231 l 615 769 q 568 817 615 817 l 333 817 q 286 769 286 817 l 286 231 q 333 183 286 183 l 568 183 q 615 231 615 183 z "},"Õ":{"ha":901,"x_min":86,"x_max":815,"o":"m 326 1092 l 351 1149 l 557 1093 q 638 1129 625 1075 l 668 1263 l 576 1263 l 550 1208 l 347 1261 q 265 1224 276 1279 l 238 1092 l 326 1092 m 283 1006 l 618 1006 q 760 951 706 1006 q 815 808 815 896 l 815 192 q 760 49 815 104 q 618 -6 706 -6 l 283 -6 q 141 49 196 -6 q 86 192 86 104 l 86 808 q 141 951 86 896 q 283 1006 196 1006 m 615 231 l 615 769 q 568 817 615 817 l 333 817 q 286 769 286 817 l 286 231 q 333 183 286 183 l 568 183 q 615 231 615 183 z "},"Ö":{"ha":901,"x_min":86,"x_max":815,"o":"m 396 1097 l 226 1097 l 226 1269 l 396 1269 l 396 1097 m 676 1097 l 507 1097 l 507 1269 l 676 1269 l 676 1097 m 283 1006 l 618 1006 q 760 951 706 1006 q 815 808 815 896 l 815 192 q 760 49 815 104 q 618 -6 706 -6 l 283 -6 q 141 49 196 -6 q 86 192 86 104 l 86 808 q 141 951 86 896 q 283 1006 196 1006 m 615 231 l 615 769 q 568 817 615 817 l 333 817 q 286 769 286 817 l 286 231 q 333 183 286 183 l 568 183 q 615 231 615 183 z "},"×":{"ha":706,"x_min":86,"x_max":621,"o":"m 621 308 l 508 196 l 354 350 l 199 196 l 86 308 l 240 464 l 86 618 l 199 731 l 354 576 l 508 731 l 621 618 l 467 464 l 621 308 z "},"Ø":{"ha":907,"x_min":86,"x_max":821,"o":"m 283 1006 l 624 1006 q 766 951 711 1006 q 821 808 821 896 l 821 192 q 766 49 821 104 q 624 -6 711 -6 l 283 -6 q 141 49 196 -6 q 86 192 86 104 l 86 808 q 141 951 86 896 q 283 1006 196 1006 m 504 814 l 333 814 q 286 767 286 814 l 286 347 l 504 814 m 397 186 l 574 186 q 621 233 621 186 l 621 665 l 397 186 z "},"Ù":{"ha":903,"x_min":94,"x_max":808,"o":"m 408 1092 l 556 1092 l 431 1292 l 201 1292 l 408 1092 m 808 1000 l 808 192 q 753 49 808 104 q 611 -6 699 -6 l 292 -6 q 149 49 204 -6 q 94 192 94 104 l 94 1000 l 294 1000 l 294 231 q 342 183 294 183 l 561 183 q 608 231 608 183 l 608 1000 l 808 1000 z "},"Ú":{"ha":903,"x_min":94,"x_max":808,"o":"m 494 1092 l 347 1092 l 472 1292 l 701 1292 l 494 1092 m 808 1000 l 808 192 q 753 49 808 104 q 611 -6 699 -6 l 292 -6 q 149 49 204 -6 q 94 192 94 104 l 94 1000 l 294 1000 l 294 231 q 342 183 294 183 l 561 183 q 608 231 608 183 l 608 1000 l 808 1000 z "},"Û":{"ha":903,"x_min":94,"x_max":808,"o":"m 333 1092 l 451 1188 l 569 1092 l 729 1092 l 535 1272 l 368 1272 l 174 1092 l 333 1092 m 808 1000 l 808 192 q 753 49 808 104 q 611 -6 699 -6 l 292 -6 q 149 49 204 -6 q 94 192 94 104 l 94 1000 l 294 1000 l 294 231 q 342 183 294 183 l 561 183 q 608 231 608 183 l 608 1000 l 808 1000 z "},"Ü":{"ha":903,"x_min":94,"x_max":808,"o":"m 396 1097 l 226 1097 l 226 1269 l 396 1269 l 396 1097 m 676 1097 l 507 1097 l 507 1269 l 676 1269 l 676 1097 m 808 1000 l 808 192 q 753 49 808 104 q 611 -6 699 -6 l 292 -6 q 149 49 204 -6 q 94 192 94 104 l 94 1000 l 294 1000 l 294 231 q 342 183 294 183 l 561 183 q 608 231 608 183 l 608 1000 l 808 1000 z "},"Ý":{"ha":833,"x_min":8,"x_max":825,"o":"m 460 1092 l 313 1092 l 438 1292 l 667 1292 l 460 1092 m 517 0 l 317 0 l 317 346 l 8 1000 l 228 1000 l 417 572 l 606 1000 l 825 1000 l 517 346 l 517 0 z "},"Þ":{"ha":869,"x_min":110,"x_max":818,"o":"m 310 1000 l 310 828 l 621 828 q 763 773 708 828 q 818 631 818 718 l 818 381 q 763 238 818 293 q 621 183 708 183 l 310 183 l 310 0 l 110 0 l 110 1000 l 310 1000 m 310 372 l 571 372 q 618 419 618 372 l 618 592 q 571 639 618 639 l 310 639 l 310 372 z "},"ß":{"ha":1736,"x_min":82,"x_max":1656,"o":"m 576 692 l 576 769 q 529 817 576 817 l 329 817 q 282 769 282 817 l 282 675 q 293 643 282 653 q 329 628 304 633 l 588 572 q 731 502 675 553 q 788 372 788 451 l 788 192 q 733 49 788 104 q 590 -6 678 -6 l 279 -6 q 137 49 192 -6 q 82 192 82 104 l 82 319 l 276 319 l 276 231 q 324 183 276 183 l 540 183 q 588 231 588 183 l 588 336 q 576 368 588 358 q 540 383 565 378 l 282 439 q 138 509 194 458 q 82 639 82 560 l 82 808 q 137 951 82 896 q 279 1006 192 1006 l 574 1006 q 716 951 661 1006 q 771 808 771 896 l 771 692 l 576 692 m 1444 692 l 1444 769 q 1397 817 1444 817 l 1197 817 q 1150 769 1150 817 l 1150 675 q 1161 643 1150 653 q 1197 628 1172 633 l 1456 572 q 1599 502 1543 553 q 1656 372 1656 451 l 1656 192 q 1601 49 1656 104 q 1458 -6 1546 -6 l 1147 -6 q 1005 49 1060 -6 q 950 192 950 104 l 950 319 l 1144 319 l 1144 231 q 1192 183 1144 183 l 1408 183 q 1456 231 1456 183 l 1456 336 q 1444 368 1456 358 q 1408 383 1433 378 l 1150 439 q 1006 509 1063 458 q 950 639 950 560 l 950 808 q 1005 951 950 896 q 1147 1006 1060 1006 l 1442 1006 q 1584 951 1529 1006 q 1639 808 1639 896 l 1639 692 l 1444 692 z "},"à":{"ha":922,"x_min":22,"x_max":900,"o":"m 418 1092 l 565 1092 l 440 1292 l 211 1292 l 418 1092 m 296 225 l 229 0 l 22 0 l 344 1000 l 578 1000 l 900 0 l 685 0 l 619 225 l 296 225 m 460 781 l 351 414 l 565 414 l 460 781 z "},"á":{"ha":922,"x_min":22,"x_max":900,"o":"m 504 1092 l 357 1092 l 482 1292 l 711 1292 l 504 1092 m 296 225 l 229 0 l 22 0 l 344 1000 l 578 1000 l 900 0 l 685 0 l 619 225 l 296 225 m 460 781 l 351 414 l 565 414 l 460 781 z "},"â":{"ha":922,"x_min":22,"x_max":900,"o":"m 343 1092 l 461 1188 l 579 1092 l 739 1092 l 544 1272 l 378 1272 l 183 1092 l 343 1092 m 296 225 l 229 0 l 22 0 l 344 1000 l 578 1000 l 900 0 l 685 0 l 619 225 l 296 225 m 460 781 l 351 414 l 565 414 l 460 781 z "},"ã":{"ha":922,"x_min":22,"x_max":900,"o":"m 336 1092 l 361 1149 l 567 1093 q 647 1129 635 1075 l 678 1263 l 586 1263 l 560 1208 l 357 1261 q 275 1224 286 1279 l 247 1092 l 336 1092 m 296 225 l 229 0 l 22 0 l 344 1000 l 578 1000 l 900 0 l 685 0 l 619 225 l 296 225 m 460 781 l 351 414 l 565 414 l 460 781 z "},"ä":{"ha":922,"x_min":22,"x_max":900,"o":"m 406 1097 l 236 1097 l 236 1269 l 406 1269 l 406 1097 m 686 1097 l 517 1097 l 517 1269 l 686 1269 l 686 1097 m 296 225 l 229 0 l 22 0 l 344 1000 l 578 1000 l 900 0 l 685 0 l 619 225 l 296 225 m 460 781 l 351 414 l 565 414 l 460 781 z "},"å":{"ha":922,"x_min":22,"x_max":900,"o":"m 547 1092 l 375 1092 q 342 1106 357 1092 q 328 1139 328 1121 l 328 1286 q 342 1319 328 1304 q 375 1333 357 1333 l 547 1333 q 580 1319 565 1333 q 594 1286 594 1304 l 594 1139 q 580 1106 594 1121 q 547 1092 565 1092 m 406 1247 l 406 1178 q 422 1161 406 1161 l 500 1161 q 517 1178 517 1161 l 517 1247 q 500 1264 517 1264 l 422 1264 q 406 1247 406 1264 m 296 225 l 229 0 l 22 0 l 344 1000 l 578 1000 l 900 0 l 685 0 l 619 225 l 296 225 m 460 781 l 351 414 l 565 414 l 460 781 z "},"æ":{"ha":1408,"x_min":4,"x_max":1342,"o":"m 888 611 l 1256 611 l 1256 422 l 888 422 l 888 189 l 1342 189 l 1342 0 l 688 0 l 688 225 l 339 225 l 231 0 l 4 0 l 508 1000 l 1342 1000 l 1342 811 l 888 811 l 888 611 m 688 808 l 618 808 l 429 414 l 688 414 l 688 808 z "},"ç":{"ha":865,"x_min":86,"x_max":797,"o":"m 597 647 l 597 769 q 550 817 597 817 l 333 817 q 286 769 286 817 l 286 231 q 333 183 286 183 l 550 183 q 597 231 597 183 l 597 353 l 797 353 l 797 192 q 742 49 797 104 q 600 -6 688 -6 l 493 -6 l 461 -69 l 497 -69 q 583 -96 551 -69 q 614 -172 614 -122 l 614 -186 q 583 -262 614 -236 q 497 -289 551 -289 l 368 -289 l 299 -208 l 481 -208 q 497 -186 497 -208 l 497 -172 q 481 -150 497 -150 l 324 -150 l 390 -6 l 283 -6 q 141 49 196 -6 q 86 192 86 104 l 86 808 q 141 951 86 896 q 283 1006 196 1006 l 600 1006 q 742 951 688 1006 q 797 808 797 896 l 797 647 l 597 647 z "},"è":{"ha":831,"x_min":110,"x_max":764,"o":"m 394 1092 l 542 1092 l 417 1292 l 188 1292 l 394 1092 m 110 1000 l 764 1000 l 764 811 l 310 811 l 310 606 l 678 606 l 678 417 l 310 417 l 310 189 l 764 189 l 764 0 l 110 0 l 110 1000 z "},"é":{"ha":831,"x_min":110,"x_max":764,"o":"m 481 1092 l 333 1092 l 458 1292 l 688 1292 l 481 1092 m 110 1000 l 764 1000 l 764 811 l 310 811 l 310 606 l 678 606 l 678 417 l 310 417 l 310 189 l 764 189 l 764 0 l 110 0 l 110 1000 z "},"ê":{"ha":831,"x_min":110,"x_max":764,"o":"m 319 1092 l 438 1188 l 556 1092 l 715 1092 l 521 1272 l 354 1272 l 160 1092 l 319 1092 m 110 1000 l 764 1000 l 764 811 l 310 811 l 310 606 l 678 606 l 678 417 l 310 417 l 310 189 l 764 189 l 764 0 l 110 0 l 110 1000 z "},"ë":{"ha":831,"x_min":110,"x_max":764,"o":"m 382 1097 l 213 1097 l 213 1269 l 382 1269 l 382 1097 m 663 1097 l 493 1097 l 493 1269 l 663 1269 l 663 1097 m 110 1000 l 764 1000 l 764 811 l 310 811 l 310 606 l 678 606 l 678 417 l 310 417 l 310 189 l 764 189 l 764 0 l 110 0 l 110 1000 z "},"ì":{"ha":419,"x_min":-40,"x_max":314,"o":"m 167 1092 l 314 1092 l 189 1292 l -40 1292 l 167 1092 m 110 0 l 110 1000 l 310 1000 l 310 0 l 110 0 z "},"í":{"ha":419,"x_min":106,"x_max":460,"o":"m 253 1092 l 106 1092 l 231 1292 l 460 1292 l 253 1092 m 110 0 l 110 1000 l 310 1000 l 310 0 l 110 0 z "},"î":{"ha":419,"x_min":-68,"x_max":488,"o":"m 92 1092 l 210 1188 l 328 1092 l 488 1092 l 293 1272 l 126 1272 l -68 1092 l 92 1092 m 110 0 l 110 1000 l 310 1000 l 310 0 l 110 0 z "},"ï":{"ha":419,"x_min":-15,"x_max":435,"o":"m 154 1097 l -15 1097 l -15 1269 l 154 1269 l 154 1097 m 435 1097 l 265 1097 l 265 1269 l 435 1269 l 435 1097 m 110 0 l 110 1000 l 310 1000 l 310 0 l 110 0 z "},"ð":{"ha":903,"x_min":-1,"x_max":817,"o":"m 99 1000 l 619 1000 q 762 945 707 1000 q 817 803 817 890 l 817 197 q 762 55 817 110 q 619 0 707 0 l 99 0 l 99 408 l -1 408 l -1 597 l 99 597 l 99 1000 m 617 236 l 617 764 q 569 811 617 811 l 299 811 l 299 597 l 399 597 l 399 408 l 299 408 l 299 189 l 569 189 q 617 236 617 189 z "},"ñ":{"ha":990,"x_min":110,"x_max":881,"o":"m 371 1092 l 396 1149 l 601 1093 q 682 1129 669 1075 l 713 1263 l 621 1263 l 594 1208 l 392 1261 q 310 1224 321 1279 l 282 1092 l 371 1092 m 693 1000 l 881 1000 l 881 0 l 665 0 l 297 682 l 297 0 l 110 0 l 110 1000 l 325 1000 l 693 318 l 693 1000 z "},"ò":{"ha":901,"x_min":86,"x_max":815,"o":"m 408 1092 l 556 1092 l 431 1292 l 201 1292 l 408 1092 m 283 1006 l 618 1006 q 760 951 706 1006 q 815 808 815 896 l 815 192 q 760 49 815 104 q 618 -6 706 -6 l 283 -6 q 141 49 196 -6 q 86 192 86 104 l 86 808 q 141 951 86 896 q 283 1006 196 1006 m 615 231 l 615 769 q 568 817 615 817 l 333 817 q 286 769 286 817 l 286 231 q 333 183 286 183 l 568 183 q 615 231 615 183 z "},"ó":{"ha":901,"x_min":86,"x_max":815,"o":"m 494 1092 l 347 1092 l 472 1292 l 701 1292 l 494 1092 m 283 1006 l 618 1006 q 760 951 706 1006 q 815 808 815 896 l 815 192 q 760 49 815 104 q 618 -6 706 -6 l 283 -6 q 141 49 196 -6 q 86 192 86 104 l 86 808 q 141 951 86 896 q 283 1006 196 1006 m 615 231 l 615 769 q 568 817 615 817 l 333 817 q 286 769 286 817 l 286 231 q 333 183 286 183 l 568 183 q 615 231 615 183 z "},"ô":{"ha":901,"x_min":86,"x_max":815,"o":"m 333 1092 l 451 1188 l 569 1092 l 729 1092 l 535 1272 l 368 1272 l 174 1092 l 333 1092 m 283 1006 l 618 1006 q 760 951 706 1006 q 815 808 815 896 l 815 192 q 760 49 815 104 q 618 -6 706 -6 l 283 -6 q 141 49 196 -6 q 86 192 86 104 l 86 808 q 141 951 86 896 q 283 1006 196 1006 m 615 231 l 615 769 q 568 817 615 817 l 333 817 q 286 769 286 817 l 286 231 q 333 183 286 183 l 568 183 q 615 231 615 183 z "},"õ":{"ha":901,"x_min":86,"x_max":815,"o":"m 326 1092 l 351 1149 l 557 1093 q 638 1129 625 1075 l 668 1263 l 576 1263 l 550 1208 l 347 1261 q 265 1224 276 1279 l 238 1092 l 326 1092 m 283 1006 l 618 1006 q 760 951 706 1006 q 815 808 815 896 l 815 192 q 760 49 815 104 q 618 -6 706 -6 l 283 -6 q 141 49 196 -6 q 86 192 86 104 l 86 808 q 141 951 86 896 q 283 1006 196 1006 m 615 231 l 615 769 q 568 817 615 817 l 333 817 q 286 769 286 817 l 286 231 q 333 183 286 183 l 568 183 q 615 231 615 183 z "},"ö":{"ha":901,"x_min":86,"x_max":815,"o":"m 396 1097 l 226 1097 l 226 1269 l 396 1269 l 396 1097 m 676 1097 l 507 1097 l 507 1269 l 676 1269 l 676 1097 m 283 1006 l 618 1006 q 760 951 706 1006 q 815 808 815 896 l 815 192 q 760 49 815 104 q 618 -6 706 -6 l 283 -6 q 141 49 196 -6 q 86 192 86 104 l 86 808 q 141 951 86 896 q 283 1006 196 1006 m 615 231 l 615 769 q 568 817 615 817 l 333 817 q 286 769 286 817 l 286 231 q 333 183 286 183 l 568 183 q 615 231 615 183 z "},"÷":{"ha":706,"x_min":50,"x_max":656,"o":"m 444 704 l 261 704 l 261 888 l 444 888 l 444 704 m 50 607 l 656 607 l 656 421 l 50 421 l 50 607 m 444 140 l 261 140 l 261 324 l 444 324 l 444 140 z "},"ø":{"ha":907,"x_min":86,"x_max":821,"o":"m 283 1006 l 624 1006 q 766 951 711 1006 q 821 808 821 896 l 821 192 q 766 49 821 104 q 624 -6 711 -6 l 283 -6 q 141 49 196 -6 q 86 192 86 104 l 86 808 q 141 951 86 896 q 283 1006 196 1006 m 504 814 l 333 814 q 286 767 286 814 l 286 347 l 504 814 m 397 186 l 574 186 q 621 233 621 186 l 621 665 l 397 186 z "},"ù":{"ha":903,"x_min":94,"x_max":808,"o":"m 408 1092 l 556 1092 l 431 1292 l 201 1292 l 408 1092 m 808 1000 l 808 192 q 753 49 808 104 q 611 -6 699 -6 l 292 -6 q 149 49 204 -6 q 94 192 94 104 l 94 1000 l 294 1000 l 294 231 q 342 183 294 183 l 561 183 q 608 231 608 183 l 608 1000 l 808 1000 z "},"ú":{"ha":903,"x_min":94,"x_max":808,"o":"m 494 1092 l 347 1092 l 472 1292 l 701 1292 l 494 1092 m 808 1000 l 808 192 q 753 49 808 104 q 611 -6 699 -6 l 292 -6 q 149 49 204 -6 q 94 192 94 104 l 94 1000 l 294 1000 l 294 231 q 342 183 294 183 l 561 183 q 608 231 608 183 l 608 1000 l 808 1000 z "},"û":{"ha":903,"x_min":94,"x_max":808,"o":"m 333 1092 l 451 1188 l 569 1092 l 729 1092 l 535 1272 l 368 1272 l 174 1092 l 333 1092 m 808 1000 l 808 192 q 753 49 808 104 q 611 -6 699 -6 l 292 -6 q 149 49 204 -6 q 94 192 94 104 l 94 1000 l 294 1000 l 294 231 q 342 183 294 183 l 561 183 q 608 231 608 183 l 608 1000 l 808 1000 z "},"ü":{"ha":903,"x_min":94,"x_max":808,"o":"m 396 1097 l 226 1097 l 226 1269 l 396 1269 l 396 1097 m 676 1097 l 507 1097 l 507 1269 l 676 1269 l 676 1097 m 808 1000 l 808 192 q 753 49 808 104 q 611 -6 699 -6 l 292 -6 q 149 49 204 -6 q 94 192 94 104 l 94 1000 l 294 1000 l 294 231 q 342 183 294 183 l 561 183 q 608 231 608 183 l 608 1000 l 808 1000 z "},"ý":{"ha":833,"x_min":8,"x_max":825,"o":"m 460 1092 l 313 1092 l 438 1292 l 667 1292 l 460 1092 m 517 0 l 317 0 l 317 346 l 8 1000 l 228 1000 l 417 572 l 606 1000 l 825 1000 l 517 346 l 517 0 z "},"þ":{"ha":869,"x_min":110,"x_max":818,"o":"m 310 1000 l 310 828 l 621 828 q 763 773 708 828 q 818 631 818 718 l 818 381 q 763 238 818 293 q 621 183 708 183 l 310 183 l 310 0 l 110 0 l 110 1000 l 310 1000 m 310 372 l 571 372 q 618 419 618 372 l 618 592 q 571 639 618 639 l 310 639 l 310 372 z "},"ÿ":{"ha":833,"x_min":8,"x_max":825,"o":"m 361 1097 l 192 1097 l 192 1269 l 361 1269 l 361 1097 m 642 1097 l 472 1097 l 472 1269 l 642 1269 l 642 1097 m 517 0 l 317 0 l 317 346 l 8 1000 l 228 1000 l 417 572 l 606 1000 l 825 1000 l 517 346 l 517 0 z "},"Ā":{"ha":922,"x_min":22,"x_max":900,"o":"m 653 1261 l 653 1106 l 269 1106 l 269 1261 l 653 1261 m 296 225 l 229 0 l 22 0 l 344 1000 l 578 1000 l 900 0 l 685 0 l 619 225 l 296 225 m 460 781 l 351 414 l 565 414 l 460 781 z "},"ā":{"ha":922,"x_min":22,"x_max":900,"o":"m 653 1261 l 653 1106 l 269 1106 l 269 1261 l 653 1261 m 296 225 l 229 0 l 22 0 l 344 1000 l 578 1000 l 900 0 l 685 0 l 619 225 l 296 225 m 460 781 l 351 414 l 565 414 l 460 781 z "},"Ă":{"ha":922,"x_min":22,"x_max":900,"o":"m 626 1279 l 626 1181 q 600 1118 626 1144 q 538 1092 574 1092 l 385 1092 q 322 1118 349 1092 q 296 1181 296 1144 l 296 1279 l 404 1279 l 404 1222 q 412 1201 404 1210 q 432 1192 419 1192 l 493 1192 q 518 1222 518 1192 l 518 1279 l 626 1279 m 296 225 l 229 0 l 22 0 l 344 1000 l 578 1000 l 900 0 l 685 0 l 619 225 l 296 225 m 460 781 l 351 414 l 565 414 l 460 781 z "},"ă":{"ha":922,"x_min":22,"x_max":900,"o":"m 626 1279 l 626 1181 q 600 1118 626 1144 q 538 1092 574 1092 l 385 1092 q 322 1118 349 1092 q 296 1181 296 1144 l 296 1279 l 404 1279 l 404 1222 q 412 1201 404 1210 q 432 1192 419 1192 l 493 1192 q 518 1222 518 1192 l 518 1279 l 626 1279 m 296 225 l 229 0 l 22 0 l 344 1000 l 578 1000 l 900 0 l 685 0 l 619 225 l 296 225 m 460 781 l 351 414 l 565 414 l 460 781 z "},"Ą":{"ha":922,"x_min":22,"x_max":900,"o":"m 804 0 l 735 -112 q 747 -140 718 -140 l 835 -140 l 835 -246 l 696 -246 q 609 -206 633 -246 q 618 -110 585 -167 l 685 0 l 619 225 l 296 225 l 229 0 l 22 0 l 344 1000 l 578 1000 l 900 0 l 804 0 m 565 414 l 460 781 l 351 414 l 565 414 z "},"ą":{"ha":922,"x_min":22,"x_max":900,"o":"m 804 0 l 735 -112 q 747 -140 718 -140 l 835 -140 l 835 -246 l 696 -246 q 609 -206 633 -246 q 618 -110 585 -167 l 685 0 l 619 225 l 296 225 l 229 0 l 22 0 l 344 1000 l 578 1000 l 900 0 l 804 0 m 565 414 l 460 781 l 351 414 l 565 414 z "},"Ć":{"ha":865,"x_min":86,"x_max":797,"o":"m 485 1092 l 338 1092 l 463 1292 l 692 1292 l 485 1092 m 597 647 l 597 769 q 550 817 597 817 l 333 817 q 286 769 286 817 l 286 231 q 333 183 286 183 l 550 183 q 597 231 597 183 l 597 353 l 797 353 l 797 192 q 742 49 797 104 q 600 -6 688 -6 l 283 -6 q 141 49 196 -6 q 86 192 86 104 l 86 808 q 141 951 86 896 q 283 1006 196 1006 l 600 1006 q 742 951 688 1006 q 797 808 797 896 l 797 647 l 597 647 z "},"ć":{"ha":865,"x_min":86,"x_max":797,"o":"m 485 1092 l 338 1092 l 463 1292 l 692 1292 l 485 1092 m 597 647 l 597 769 q 550 817 597 817 l 333 817 q 286 769 286 817 l 286 231 q 333 183 286 183 l 550 183 q 597 231 597 183 l 597 353 l 797 353 l 797 192 q 742 49 797 104 q 600 -6 688 -6 l 283 -6 q 141 49 196 -6 q 86 192 86 104 l 86 808 q 141 951 86 896 q 283 1006 196 1006 l 600 1006 q 742 951 688 1006 q 797 808 797 896 l 797 647 l 597 647 z "},"Ċ":{"ha":865,"x_min":86,"x_max":797,"o":"m 526 1097 l 357 1097 l 357 1269 l 526 1269 l 526 1097 m 597 647 l 597 769 q 550 817 597 817 l 333 817 q 286 769 286 817 l 286 231 q 333 183 286 183 l 550 183 q 597 231 597 183 l 597 353 l 797 353 l 797 192 q 742 49 797 104 q 600 -6 688 -6 l 283 -6 q 141 49 196 -6 q 86 192 86 104 l 86 808 q 141 951 86 896 q 283 1006 196 1006 l 600 1006 q 742 951 688 1006 q 797 808 797 896 l 797 647 l 597 647 z "},"ċ":{"ha":865,"x_min":86,"x_max":797,"o":"m 526 1097 l 357 1097 l 357 1269 l 526 1269 l 526 1097 m 597 647 l 597 769 q 550 817 597 817 l 333 817 q 286 769 286 817 l 286 231 q 333 183 286 183 l 550 183 q 597 231 597 183 l 597 353 l 797 353 l 797 192 q 742 49 797 104 q 600 -6 688 -6 l 283 -6 q 141 49 196 -6 q 86 192 86 104 l 86 808 q 141 951 86 896 q 283 1006 196 1006 l 600 1006 q 742 951 688 1006 q 797 808 797 896 l 797 647 l 597 647 z "},"Č":{"ha":865,"x_min":86,"x_max":797,"o":"m 358 1092 l 525 1092 l 719 1272 l 560 1272 l 442 1176 l 324 1272 l 164 1272 l 358 1092 m 597 647 l 597 769 q 550 817 597 817 l 333 817 q 286 769 286 817 l 286 231 q 333 183 286 183 l 550 183 q 597 231 597 183 l 597 353 l 797 353 l 797 192 q 742 49 797 104 q 600 -6 688 -6 l 283 -6 q 141 49 196 -6 q 86 192 86 104 l 86 808 q 141 951 86 896 q 283 1006 196 1006 l 600 1006 q 742 951 688 1006 q 797 808 797 896 l 797 647 l 597 647 z "},"č":{"ha":865,"x_min":86,"x_max":797,"o":"m 358 1092 l 525 1092 l 719 1272 l 560 1272 l 442 1176 l 324 1272 l 164 1272 l 358 1092 m 597 647 l 597 769 q 550 817 597 817 l 333 817 q 286 769 286 817 l 286 231 q 333 183 286 183 l 550 183 q 597 231 597 183 l 597 353 l 797 353 l 797 192 q 742 49 797 104 q 600 -6 688 -6 l 283 -6 q 141 49 196 -6 q 86 192 86 104 l 86 808 q 141 951 86 896 q 283 1006 196 1006 l 600 1006 q 742 951 688 1006 q 797 808 797 896 l 797 647 l 597 647 z "},"Ď":{"ha":914,"x_min":110,"x_max":828,"o":"m 369 1092 l 536 1092 l 731 1272 l 571 1272 l 453 1176 l 335 1272 l 175 1272 l 369 1092 m 110 1000 l 631 1000 q 773 945 718 1000 q 828 803 828 890 l 828 197 q 773 55 828 110 q 631 0 718 0 l 110 0 l 110 1000 m 310 189 l 581 189 q 628 236 628 189 l 628 764 q 581 811 628 811 l 310 811 l 310 189 z "},"ď":{"ha":914,"x_min":110,"x_max":828,"o":"m 369 1092 l 536 1092 l 731 1272 l 571 1272 l 453 1176 l 335 1272 l 175 1272 l 369 1092 m 110 1000 l 631 1000 q 773 945 718 1000 q 828 803 828 890 l 828 197 q 773 55 828 110 q 631 0 718 0 l 110 0 l 110 1000 m 310 189 l 581 189 q 628 236 628 189 l 628 764 q 581 811 628 811 l 310 811 l 310 189 z "},"Đ":{"ha":903,"x_min":-1,"x_max":817,"o":"m 99 1000 l 619 1000 q 762 945 707 1000 q 817 803 817 890 l 817 197 q 762 55 817 110 q 619 0 707 0 l 99 0 l 99 408 l -1 408 l -1 597 l 99 597 l 99 1000 m 617 236 l 617 764 q 569 811 617 811 l 299 811 l 299 597 l 399 597 l 399 408 l 299 408 l 299 189 l 569 189 q 617 236 617 189 z "},"đ":{"ha":903,"x_min":-1,"x_max":817,"o":"m 99 1000 l 619 1000 q 762 945 707 1000 q 817 803 817 890 l 817 197 q 762 55 817 110 q 619 0 707 0 l 99 0 l 99 408 l -1 408 l -1 597 l 99 597 l 99 1000 m 617 236 l 617 764 q 569 811 617 811 l 299 811 l 299 597 l 399 597 l 399 408 l 299 408 l 299 189 l 569 189 q 617 236 617 189 z "},"Ē":{"ha":831,"x_min":110,"x_max":764,"o":"m 629 1261 l 629 1106 l 246 1106 l 246 1261 l 629 1261 m 110 1000 l 764 1000 l 764 811 l 310 811 l 310 606 l 678 606 l 678 417 l 310 417 l 310 189 l 764 189 l 764 0 l 110 0 l 110 1000 z "},"ē":{"ha":831,"x_min":110,"x_max":764,"o":"m 629 1261 l 629 1106 l 246 1106 l 246 1261 l 629 1261 m 110 1000 l 764 1000 l 764 811 l 310 811 l 310 606 l 678 606 l 678 417 l 310 417 l 310 189 l 764 189 l 764 0 l 110 0 l 110 1000 z "},"Ė":{"ha":831,"x_min":110,"x_max":764,"o":"m 522 1097 l 353 1097 l 353 1269 l 522 1269 l 522 1097 m 110 1000 l 764 1000 l 764 811 l 310 811 l 310 606 l 678 606 l 678 417 l 310 417 l 310 189 l 764 189 l 764 0 l 110 0 l 110 1000 z "},"ė":{"ha":831,"x_min":110,"x_max":764,"o":"m 522 1097 l 353 1097 l 353 1269 l 522 1269 l 522 1097 m 110 1000 l 764 1000 l 764 811 l 310 811 l 310 606 l 678 606 l 678 417 l 310 417 l 310 189 l 764 189 l 764 0 l 110 0 l 110 1000 z "},"Ę":{"ha":831,"x_min":110,"x_max":794,"o":"m 794 -140 l 794 -246 l 656 -246 q 569 -206 593 -246 q 578 -110 544 -167 l 644 0 l 110 0 l 110 1000 l 764 1000 l 764 811 l 310 811 l 310 606 l 678 606 l 678 417 l 310 417 l 310 189 l 764 189 l 764 0 l 694 -112 q 707 -140 678 -140 l 794 -140 z "},"ę":{"ha":831,"x_min":110,"x_max":794,"o":"m 794 -140 l 794 -246 l 656 -246 q 569 -206 593 -246 q 578 -110 544 -167 l 644 0 l 110 0 l 110 1000 l 764 1000 l 764 811 l 310 811 l 310 606 l 678 606 l 678 417 l 310 417 l 310 189 l 764 189 l 764 0 l 694 -112 q 707 -140 678 -140 l 794 -140 z "},"Ě":{"ha":831,"x_min":110,"x_max":764,"o":"m 354 1092 l 521 1092 l 715 1272 l 556 1272 l 438 1176 l 319 1272 l 160 1272 l 354 1092 m 110 1000 l 764 1000 l 764 811 l 310 811 l 310 606 l 678 606 l 678 417 l 310 417 l 310 189 l 764 189 l 764 0 l 110 0 l 110 1000 z "},"ě":{"ha":831,"x_min":110,"x_max":764,"o":"m 354 1092 l 521 1092 l 715 1272 l 556 1272 l 438 1176 l 319 1272 l 160 1272 l 354 1092 m 110 1000 l 764 1000 l 764 811 l 310 811 l 310 606 l 678 606 l 678 417 l 310 417 l 310 189 l 764 189 l 764 0 l 110 0 l 110 1000 z "},"Ğ":{"ha":892,"x_min":86,"x_max":810,"o":"m 614 1279 l 614 1181 q 588 1118 614 1144 q 525 1092 561 1092 l 372 1092 q 310 1118 336 1092 q 283 1181 283 1144 l 283 1279 l 392 1279 l 392 1222 q 399 1201 392 1210 q 419 1192 407 1192 l 481 1192 q 506 1222 506 1192 l 506 1279 l 614 1279 m 610 678 l 610 769 q 563 817 610 817 l 333 817 q 286 769 286 817 l 286 231 q 333 183 286 183 l 563 183 q 610 231 610 183 l 610 379 l 426 379 l 426 560 l 810 560 l 810 192 q 755 49 810 104 q 613 -6 700 -6 l 283 -6 q 141 49 196 -6 q 86 192 86 104 l 86 808 q 141 951 86 896 q 283 1006 196 1006 l 613 1006 q 755 951 700 1006 q 810 808 810 896 l 810 678 l 610 678 z "},"ğ":{"ha":892,"x_min":86,"x_max":810,"o":"m 614 1279 l 614 1181 q 588 1118 614 1144 q 525 1092 561 1092 l 372 1092 q 310 1118 336 1092 q 283 1181 283 1144 l 283 1279 l 392 1279 l 392 1222 q 399 1201 392 1210 q 419 1192 407 1192 l 481 1192 q 506 1222 506 1192 l 506 1279 l 614 1279 m 610 678 l 610 769 q 563 817 610 817 l 333 817 q 286 769 286 817 l 286 231 q 333 183 286 183 l 563 183 q 610 231 610 183 l 610 379 l 426 379 l 426 560 l 810 560 l 810 192 q 755 49 810 104 q 613 -6 700 -6 l 283 -6 q 141 49 196 -6 q 86 192 86 104 l 86 808 q 141 951 86 896 q 283 1006 196 1006 l 613 1006 q 755 951 700 1006 q 810 808 810 896 l 810 678 l 610 678 z "},"Ġ":{"ha":892,"x_min":86,"x_max":810,"o":"m 533 1097 l 364 1097 l 364 1269 l 533 1269 l 533 1097 m 610 678 l 610 769 q 563 817 610 817 l 333 817 q 286 769 286 817 l 286 231 q 333 183 286 183 l 563 183 q 610 231 610 183 l 610 379 l 426 379 l 426 560 l 810 560 l 810 192 q 755 49 810 104 q 613 -6 700 -6 l 283 -6 q 141 49 196 -6 q 86 192 86 104 l 86 808 q 141 951 86 896 q 283 1006 196 1006 l 613 1006 q 755 951 700 1006 q 810 808 810 896 l 810 678 l 610 678 z "},"ġ":{"ha":892,"x_min":86,"x_max":810,"o":"m 533 1097 l 364 1097 l 364 1269 l 533 1269 l 533 1097 m 610 678 l 610 769 q 563 817 610 817 l 333 817 q 286 769 286 817 l 286 231 q 333 183 286 183 l 563 183 q 610 231 610 183 l 610 379 l 426 379 l 426 560 l 810 560 l 810 192 q 755 49 810 104 q 613 -6 700 -6 l 283 -6 q 141 49 196 -6 q 86 192 86 104 l 86 808 q 141 951 86 896 q 283 1006 196 1006 l 613 1006 q 755 951 700 1006 q 810 808 810 896 l 810 678 l 610 678 z "},"Ģ":{"ha":892,"x_min":86,"x_max":810,"o":"m 610 678 l 610 769 q 563 817 610 817 l 333 817 q 286 769 286 817 l 286 231 q 333 183 286 183 l 563 183 q 610 231 610 183 l 610 379 l 426 379 l 426 560 l 810 560 l 810 192 q 755 49 810 104 q 613 -6 700 -6 l 283 -6 q 141 49 196 -6 q 86 192 86 104 l 86 808 q 141 951 86 896 q 283 1006 196 1006 l 613 1006 q 755 951 700 1006 q 810 808 810 896 l 810 678 l 610 678 m 546 -97 l 546 -247 q 479 -378 546 -292 l 397 -486 l 319 -486 l 426 -300 l 351 -300 l 351 -97 l 546 -97 z "},"ģ":{"ha":892,"x_min":86,"x_max":810,"o":"m 610 678 l 610 769 q 563 817 610 817 l 333 817 q 286 769 286 817 l 286 231 q 333 183 286 183 l 563 183 q 610 231 610 183 l 610 379 l 426 379 l 426 560 l 810 560 l 810 192 q 755 49 810 104 q 613 -6 700 -6 l 283 -6 q 141 49 196 -6 q 86 192 86 104 l 86 808 q 141 951 86 896 q 283 1006 196 1006 l 613 1006 q 755 951 700 1006 q 810 808 810 896 l 810 678 l 610 678 m 546 -97 l 546 -247 q 479 -378 546 -292 l 397 -486 l 319 -486 l 426 -300 l 351 -300 l 351 -97 l 546 -97 z "},"Ħ":{"ha":972,"x_min":11,"x_max":961,"o":"m 857 704 l 857 0 l 657 0 l 657 422 l 315 422 l 315 0 l 115 0 l 115 704 l 11 704 l 11 865 l 115 865 l 115 1000 l 315 1000 l 315 865 l 657 865 l 657 1000 l 857 1000 l 857 865 l 961 865 l 961 704 l 857 704 m 315 704 l 315 611 l 657 611 l 657 704 l 315 704 z "},"ħ":{"ha":972,"x_min":11,"x_max":961,"o":"m 857 704 l 857 0 l 657 0 l 657 422 l 315 422 l 315 0 l 115 0 l 115 704 l 11 704 l 11 865 l 115 865 l 115 1000 l 315 1000 l 315 865 l 657 865 l 657 1000 l 857 1000 l 857 865 l 961 865 l 961 704 l 857 704 m 315 704 l 315 611 l 657 611 l 657 704 l 315 704 z "},"Ī":{"ha":419,"x_min":18,"x_max":401,"o":"m 401 1261 l 401 1106 l 18 1106 l 18 1261 l 401 1261 m 110 0 l 110 1000 l 310 1000 l 310 0 l 110 0 z "},"ī":{"ha":419,"x_min":18,"x_max":401,"o":"m 401 1261 l 401 1106 l 18 1106 l 18 1261 l 401 1261 m 110 0 l 110 1000 l 310 1000 l 310 0 l 110 0 z "},"Į":{"ha":419,"x_min":111,"x_max":338,"o":"m 338 -140 l 338 -246 l 199 -246 q 112 -206 136 -246 q 121 -110 88 -167 l 188 0 l 133 0 l 133 1000 l 333 1000 l 333 0 l 307 0 l 238 -112 q 250 -140 221 -140 l 338 -140 z "},"į":{"ha":419,"x_min":111,"x_max":338,"o":"m 338 -140 l 338 -246 l 199 -246 q 112 -206 136 -246 q 121 -110 88 -167 l 188 0 l 133 0 l 133 1000 l 333 1000 l 333 0 l 307 0 l 238 -112 q 250 -140 221 -140 l 338 -140 z "},"İ":{"ha":419,"x_min":110,"x_max":310,"o":"m 294 1097 l 125 1097 l 125 1269 l 294 1269 l 294 1097 m 110 0 l 110 1000 l 310 1000 l 310 0 l 110 0 z "},"Ĳ":{"ha":1236,"x_min":110,"x_max":1142,"o":"m 110 0 l 110 1000 l 310 1000 l 310 0 l 110 0 m 1142 1000 l 1142 192 q 1087 49 1142 104 q 944 -6 1032 -6 l 654 -6 q 512 49 567 -6 q 457 192 457 104 l 457 411 l 657 411 l 657 231 q 704 183 657 183 l 894 183 q 942 231 942 183 l 942 1000 l 1142 1000 z "},"ĳ":{"ha":1236,"x_min":110,"x_max":1142,"o":"m 110 0 l 110 1000 l 310 1000 l 310 0 l 110 0 m 1142 1000 l 1142 192 q 1087 49 1142 104 q 944 -6 1032 -6 l 654 -6 q 512 49 567 -6 q 457 192 457 104 l 457 411 l 657 411 l 657 231 q 704 183 657 183 l 894 183 q 942 231 942 183 l 942 1000 l 1142 1000 z "},"Ķ":{"ha":924,"x_min":110,"x_max":903,"o":"m 447 435 l 307 256 l 307 0 l 110 0 l 110 1000 l 307 1000 l 307 531 l 653 1000 l 888 1000 l 581 606 l 903 0 l 678 0 l 447 435 m 593 -97 l 593 -247 q 526 -378 593 -292 l 444 -486 l 367 -486 l 474 -300 l 399 -300 l 399 -97 l 593 -97 z "},"ķ":{"ha":924,"x_min":110,"x_max":903,"o":"m 447 435 l 307 256 l 307 0 l 110 0 l 110 1000 l 307 1000 l 307 531 l 653 1000 l 888 1000 l 581 606 l 903 0 l 678 0 l 447 435 m 593 -97 l 593 -247 q 526 -378 593 -292 l 444 -486 l 367 -486 l 474 -300 l 399 -300 l 399 -97 l 593 -97 z "},"Ĺ":{"ha":771,"x_min":106,"x_max":729,"o":"m 253 1092 l 106 1092 l 231 1292 l 460 1292 l 253 1092 m 110 1000 l 310 1000 l 310 189 l 729 189 l 729 0 l 110 0 l 110 1000 z "},"ĺ":{"ha":771,"x_min":106,"x_max":729,"o":"m 253 1092 l 106 1092 l 231 1292 l 460 1292 l 253 1092 m 110 1000 l 310 1000 l 310 189 l 729 189 l 729 0 l 110 0 l 110 1000 z "},"Ļ":{"ha":771,"x_min":110,"x_max":729,"o":"m 110 1000 l 310 1000 l 310 189 l 729 189 l 729 0 l 110 0 l 110 1000 m 517 -97 l 517 -247 q 450 -378 517 -292 l 368 -486 l 290 -486 l 397 -300 l 322 -300 l 322 -97 l 517 -97 z "},"ļ":{"ha":771,"x_min":110,"x_max":729,"o":"m 110 1000 l 310 1000 l 310 189 l 729 189 l 729 0 l 110 0 l 110 1000 m 517 -97 l 517 -247 q 450 -378 517 -292 l 368 -486 l 290 -486 l 397 -300 l 322 -300 l 322 -97 l 517 -97 z "},"Ľ":{"ha":771,"x_min":110,"x_max":729,"o":"m 628 1050 l 628 900 q 561 769 628 856 l 479 661 l 401 661 l 508 847 l 433 847 l 433 1050 l 628 1050 m 110 1000 l 310 1000 l 310 189 l 729 189 l 729 0 l 110 0 l 110 1000 z "},"ľ":{"ha":771,"x_min":110,"x_max":729,"o":"m 628 1050 l 628 900 q 561 769 628 856 l 479 661 l 401 661 l 508 847 l 433 847 l 433 1050 l 628 1050 m 110 1000 l 310 1000 l 310 189 l 729 189 l 729 0 l 110 0 l 110 1000 z "},"Ŀ":{"ha":771,"x_min":110,"x_max":729,"o":"m 110 1000 l 310 1000 l 310 189 l 729 189 l 729 0 l 110 0 l 110 1000 m 678 438 l 483 438 l 483 640 l 678 640 l 678 438 z "},"ŀ":{"ha":771,"x_min":110,"x_max":729,"o":"m 110 1000 l 310 1000 l 310 189 l 729 189 l 729 0 l 110 0 l 110 1000 m 678 438 l 483 438 l 483 640 l 678 640 l 678 438 z "},"Ł":{"ha":771,"x_min":21,"x_max":729,"o":"m 729 0 l 110 0 l 110 418 l 21 383 l 21 568 l 110 603 l 110 1000 l 310 1000 l 310 679 l 499 751 l 499 567 l 310 494 l 310 189 l 729 189 l 729 0 z "},"ł":{"ha":771,"x_min":21,"x_max":729,"o":"m 729 0 l 110 0 l 110 418 l 21 383 l 21 568 l 110 603 l 110 1000 l 310 1000 l 310 679 l 499 751 l 499 567 l 310 494 l 310 189 l 729 189 l 729 0 z "},"Ń":{"ha":990,"x_min":110,"x_max":881,"o":"m 539 1092 l 392 1092 l 517 1292 l 746 1292 l 539 1092 m 693 1000 l 881 1000 l 881 0 l 665 0 l 297 682 l 297 0 l 110 0 l 110 1000 l 325 1000 l 693 318 l 693 1000 z "},"ń":{"ha":990,"x_min":110,"x_max":881,"o":"m 539 1092 l 392 1092 l 517 1292 l 746 1292 l 539 1092 m 693 1000 l 881 1000 l 881 0 l 665 0 l 297 682 l 297 0 l 110 0 l 110 1000 l 325 1000 l 693 318 l 693 1000 z "},"Ņ":{"ha":990,"x_min":110,"x_max":881,"o":"m 693 1000 l 881 1000 l 881 0 l 665 0 l 297 682 l 297 0 l 110 0 l 110 1000 l 325 1000 l 693 318 l 693 1000 m 593 -97 l 593 -247 q 526 -378 593 -292 l 444 -486 l 367 -486 l 474 -300 l 399 -300 l 399 -97 l 593 -97 z "},"ņ":{"ha":990,"x_min":110,"x_max":881,"o":"m 693 1000 l 881 1000 l 881 0 l 665 0 l 297 682 l 297 0 l 110 0 l 110 1000 l 325 1000 l 693 318 l 693 1000 m 593 -97 l 593 -247 q 526 -378 593 -292 l 444 -486 l 367 -486 l 474 -300 l 399 -300 l 399 -97 l 593 -97 z "},"Ň":{"ha":990,"x_min":110,"x_max":881,"o":"m 413 1092 l 579 1092 l 774 1272 l 614 1272 l 496 1176 l 378 1272 l 218 1272 l 413 1092 m 693 1000 l 881 1000 l 881 0 l 665 0 l 297 682 l 297 0 l 110 0 l 110 1000 l 325 1000 l 693 318 l 693 1000 z "},"ň":{"ha":990,"x_min":110,"x_max":881,"o":"m 413 1092 l 579 1092 l 774 1272 l 614 1272 l 496 1176 l 378 1272 l 218 1272 l 413 1092 m 693 1000 l 881 1000 l 881 0 l 665 0 l 297 682 l 297 0 l 110 0 l 110 1000 l 325 1000 l 693 318 l 693 1000 z "},"Ŋ":{"ha":988,"x_min":110,"x_max":878,"o":"m 878 1000 l 878 -85 q 822 -224 878 -168 q 683 -279 767 -279 l 514 -279 l 514 -107 l 651 -107 q 696 -62 696 -107 l 696 -3 l 297 679 l 297 0 l 110 0 l 110 1000 l 326 1000 l 690 371 l 690 1000 l 878 1000 z "},"ŋ":{"ha":988,"x_min":110,"x_max":878,"o":"m 878 1000 l 878 -85 q 822 -224 878 -168 q 683 -279 767 -279 l 514 -279 l 514 -107 l 651 -107 q 696 -62 696 -107 l 696 -3 l 297 679 l 297 0 l 110 0 l 110 1000 l 326 1000 l 690 371 l 690 1000 l 878 1000 z "},"Ō":{"ha":901,"x_min":86,"x_max":815,"o":"m 643 1261 l 643 1106 l 260 1106 l 260 1261 l 643 1261 m 283 1006 l 618 1006 q 760 951 706 1006 q 815 808 815 896 l 815 192 q 760 49 815 104 q 618 -6 706 -6 l 283 -6 q 141 49 196 -6 q 86 192 86 104 l 86 808 q 141 951 86 896 q 283 1006 196 1006 m 615 231 l 615 769 q 568 817 615 817 l 333 817 q 286 769 286 817 l 286 231 q 333 183 286 183 l 568 183 q 615 231 615 183 z "},"ō":{"ha":901,"x_min":86,"x_max":815,"o":"m 643 1261 l 643 1106 l 260 1106 l 260 1261 l 643 1261 m 283 1006 l 618 1006 q 760 951 706 1006 q 815 808 815 896 l 815 192 q 760 49 815 104 q 618 -6 706 -6 l 283 -6 q 141 49 196 -6 q 86 192 86 104 l 86 808 q 141 951 86 896 q 283 1006 196 1006 m 615 231 l 615 769 q 568 817 615 817 l 333 817 q 286 769 286 817 l 286 231 q 333 183 286 183 l 568 183 q 615 231 615 183 z "},"Ő":{"ha":901,"x_min":86,"x_max":815,"o":"m 519 1293 l 360 1092 l 185 1092 l 344 1293 l 519 1293 m 793 1293 l 633 1092 l 458 1092 l 618 1293 l 793 1293 m 283 1006 l 618 1006 q 760 951 706 1006 q 815 808 815 896 l 815 192 q 760 49 815 104 q 618 -6 706 -6 l 283 -6 q 141 49 196 -6 q 86 192 86 104 l 86 808 q 141 951 86 896 q 283 1006 196 1006 m 615 231 l 615 769 q 568 817 615 817 l 333 817 q 286 769 286 817 l 286 231 q 333 183 286 183 l 568 183 q 615 231 615 183 z "},"ő":{"ha":901,"x_min":86,"x_max":815,"o":"m 519 1293 l 360 1092 l 185 1092 l 344 1293 l 519 1293 m 793 1293 l 633 1092 l 458 1092 l 618 1293 l 793 1293 m 283 1006 l 618 1006 q 760 951 706 1006 q 815 808 815 896 l 815 192 q 760 49 815 104 q 618 -6 706 -6 l 283 -6 q 141 49 196 -6 q 86 192 86 104 l 86 808 q 141 951 86 896 q 283 1006 196 1006 m 615 231 l 615 769 q 568 817 615 817 l 333 817 q 286 769 286 817 l 286 231 q 333 183 286 183 l 568 183 q 615 231 615 183 z "},"Œ":{"ha":1342,"x_min":86,"x_max":1275,"o":"m 821 603 l 1189 603 l 1189 414 l 821 414 l 821 189 l 1275 189 l 1275 0 l 283 0 q 141 55 196 0 q 86 197 86 110 l 86 803 q 141 945 86 890 q 283 1000 196 1000 l 1275 1000 l 1275 811 l 821 811 l 821 603 m 621 811 l 333 811 q 286 764 286 811 l 286 236 q 333 189 286 189 l 621 189 l 621 811 z "},"œ":{"ha":1342,"x_min":86,"x_max":1275,"o":"m 821 603 l 1189 603 l 1189 414 l 821 414 l 821 189 l 1275 189 l 1275 0 l 283 0 q 141 55 196 0 q 86 197 86 110 l 86 803 q 141 945 86 890 q 283 1000 196 1000 l 1275 1000 l 1275 811 l 821 811 l 821 603 m 621 811 l 333 811 q 286 764 286 811 l 286 236 q 333 189 286 189 l 621 189 l 621 811 z "},"Ŕ":{"ha":903,"x_min":110,"x_max":847,"o":"m 476 1092 l 329 1092 l 454 1292 l 683 1292 l 476 1092 m 847 0 l 632 0 l 471 371 l 310 371 l 310 0 l 110 0 l 110 1000 l 619 1000 q 762 945 707 1000 q 817 803 817 890 l 817 568 q 780 447 817 497 q 681 379 743 397 l 847 0 m 617 604 l 617 764 q 569 811 617 811 l 310 811 l 310 557 l 569 557 q 617 604 617 557 z "},"ŕ":{"ha":903,"x_min":110,"x_max":847,"o":"m 476 1092 l 329 1092 l 454 1292 l 683 1292 l 476 1092 m 847 0 l 632 0 l 471 371 l 310 371 l 310 0 l 110 0 l 110 1000 l 619 1000 q 762 945 707 1000 q 817 803 817 890 l 817 568 q 780 447 817 497 q 681 379 743 397 l 847 0 m 617 604 l 617 764 q 569 811 617 811 l 310 811 l 310 557 l 569 557 q 617 604 617 557 z "},"Ŗ":{"ha":903,"x_min":110,"x_max":847,"o":"m 847 0 l 632 0 l 471 371 l 310 371 l 310 0 l 110 0 l 110 1000 l 619 1000 q 762 945 707 1000 q 817 803 817 890 l 817 568 q 780 447 817 497 q 681 379 743 397 l 847 0 m 617 604 l 617 764 q 569 811 617 811 l 310 811 l 310 557 l 569 557 q 617 604 617 557 m 363 -97 l 557 -97 l 557 -247 q 490 -378 557 -292 l 408 -486 l 331 -486 l 438 -300 l 363 -300 l 363 -97 z "},"ŗ":{"ha":903,"x_min":110,"x_max":847,"o":"m 847 0 l 632 0 l 471 371 l 310 371 l 310 0 l 110 0 l 110 1000 l 619 1000 q 762 945 707 1000 q 817 803 817 890 l 817 568 q 780 447 817 497 q 681 379 743 397 l 847 0 m 617 604 l 617 764 q 569 811 617 811 l 310 811 l 310 557 l 569 557 q 617 604 617 557 m 363 -97 l 557 -97 l 557 -247 q 490 -378 557 -292 l 408 -486 l 331 -486 l 438 -300 l 363 -300 l 363 -97 z "},"Ř":{"ha":903,"x_min":110,"x_max":847,"o":"m 350 1092 l 156 1272 l 315 1272 l 433 1176 l 551 1272 l 711 1272 l 517 1092 l 350 1092 m 847 0 l 632 0 l 471 371 l 310 371 l 310 0 l 110 0 l 110 1000 l 619 1000 q 762 945 707 1000 q 817 803 817 890 l 817 568 q 780 447 817 497 q 681 379 743 397 l 847 0 m 617 604 l 617 764 q 569 811 617 811 l 310 811 l 310 557 l 569 557 q 617 604 617 557 z "},"ř":{"ha":903,"x_min":110,"x_max":847,"o":"m 350 1092 l 156 1272 l 315 1272 l 433 1176 l 551 1272 l 711 1272 l 517 1092 l 350 1092 m 847 0 l 632 0 l 471 371 l 310 371 l 310 0 l 110 0 l 110 1000 l 619 1000 q 762 945 707 1000 q 817 803 817 890 l 817 568 q 780 447 817 497 q 681 379 743 397 l 847 0 m 617 604 l 617 764 q 569 811 617 811 l 310 811 l 310 557 l 569 557 q 617 604 617 557 z "},"Ś":{"ha":868,"x_min":82,"x_max":788,"o":"m 469 1092 l 322 1092 l 447 1292 l 676 1292 l 469 1092 m 576 692 l 576 769 q 529 817 576 817 l 329 817 q 282 769 282 817 l 282 675 q 293 643 282 653 q 329 628 304 633 l 588 572 q 731 502 675 553 q 788 372 788 451 l 788 192 q 733 49 788 104 q 590 -6 678 -6 l 279 -6 q 137 49 192 -6 q 82 192 82 104 l 82 319 l 276 319 l 276 231 q 324 183 276 183 l 540 183 q 588 231 588 183 l 588 336 q 576 368 588 358 q 540 383 565 378 l 282 439 q 138 509 194 458 q 82 639 82 560 l 82 808 q 137 951 82 896 q 279 1006 192 1006 l 574 1006 q 716 951 661 1006 q 771 808 771 896 l 771 692 l 576 692 z "},"ś":{"ha":868,"x_min":82,"x_max":788,"o":"m 469 1092 l 322 1092 l 447 1292 l 676 1292 l 469 1092 m 576 692 l 576 769 q 529 817 576 817 l 329 817 q 282 769 282 817 l 282 675 q 293 643 282 653 q 329 628 304 633 l 588 572 q 731 502 675 553 q 788 372 788 451 l 788 192 q 733 49 788 104 q 590 -6 678 -6 l 279 -6 q 137 49 192 -6 q 82 192 82 104 l 82 319 l 276 319 l 276 231 q 324 183 276 183 l 540 183 q 588 231 588 183 l 588 336 q 576 368 588 358 q 540 383 565 378 l 282 439 q 138 509 194 458 q 82 639 82 560 l 82 808 q 137 951 82 896 q 279 1006 192 1006 l 574 1006 q 716 951 661 1006 q 771 808 771 896 l 771 692 l 576 692 z "},"Ş":{"ha":868,"x_min":82,"x_max":788,"o":"m 329 628 l 588 572 q 731 502 675 553 q 788 372 788 451 l 788 192 q 733 49 788 104 q 590 -6 678 -6 l 486 -6 l 454 -69 l 490 -69 q 576 -96 544 -69 q 607 -172 607 -122 l 607 -186 q 576 -262 607 -236 q 490 -289 544 -289 l 361 -289 l 292 -208 l 474 -208 q 490 -186 490 -208 l 490 -172 q 474 -150 490 -150 l 317 -150 l 383 -6 l 279 -6 q 137 49 192 -6 q 82 192 82 104 l 82 319 l 276 319 l 276 231 q 324 183 276 183 l 540 183 q 588 231 588 183 l 588 336 q 576 368 588 358 q 540 383 565 378 l 282 439 q 138 509 194 458 q 82 639 82 560 l 82 808 q 137 951 82 896 q 279 1006 192 1006 l 574 1006 q 716 951 661 1006 q 771 808 771 896 l 771 692 l 576 692 l 576 769 q 529 817 576 817 l 329 817 q 282 769 282 817 l 282 675 q 293 643 282 653 q 329 628 304 633 z "},"ş":{"ha":868,"x_min":82,"x_max":788,"o":"m 329 628 l 588 572 q 731 502 675 553 q 788 372 788 451 l 788 192 q 733 49 788 104 q 590 -6 678 -6 l 486 -6 l 454 -69 l 490 -69 q 576 -96 544 -69 q 607 -172 607 -122 l 607 -186 q 576 -262 607 -236 q 490 -289 544 -289 l 361 -289 l 292 -208 l 474 -208 q 490 -186 490 -208 l 490 -172 q 474 -150 490 -150 l 317 -150 l 383 -6 l 279 -6 q 137 49 192 -6 q 82 192 82 104 l 82 319 l 276 319 l 276 231 q 324 183 276 183 l 540 183 q 588 231 588 183 l 588 336 q 576 368 588 358 q 540 383 565 378 l 282 439 q 138 509 194 458 q 82 639 82 560 l 82 808 q 137 951 82 896 q 279 1006 192 1006 l 574 1006 q 716 951 661 1006 q 771 808 771 896 l 771 692 l 576 692 l 576 769 q 529 817 576 817 l 329 817 q 282 769 282 817 l 282 675 q 293 643 282 653 q 329 628 304 633 z "},"Š":{"ha":868,"x_min":82,"x_max":788,"o":"m 343 1092 l 510 1092 l 704 1272 l 544 1272 l 426 1176 l 308 1272 l 149 1272 l 343 1092 m 576 692 l 576 769 q 529 817 576 817 l 329 817 q 282 769 282 817 l 282 675 q 293 643 282 653 q 329 628 304 633 l 588 572 q 731 502 675 553 q 788 372 788 451 l 788 192 q 733 49 788 104 q 590 -6 678 -6 l 279 -6 q 137 49 192 -6 q 82 192 82 104 l 82 319 l 276 319 l 276 231 q 324 183 276 183 l 540 183 q 588 231 588 183 l 588 336 q 576 368 588 358 q 540 383 565 378 l 282 439 q 138 509 194 458 q 82 639 82 560 l 82 808 q 137 951 82 896 q 279 1006 192 1006 l 574 1006 q 716 951 661 1006 q 771 808 771 896 l 771 692 l 576 692 z "},"š":{"ha":868,"x_min":82,"x_max":788,"o":"m 343 1092 l 510 1092 l 704 1272 l 544 1272 l 426 1176 l 308 1272 l 149 1272 l 343 1092 m 576 692 l 576 769 q 529 817 576 817 l 329 817 q 282 769 282 817 l 282 675 q 293 643 282 653 q 329 628 304 633 l 588 572 q 731 502 675 553 q 788 372 788 451 l 788 192 q 733 49 788 104 q 590 -6 678 -6 l 279 -6 q 137 49 192 -6 q 82 192 82 104 l 82 319 l 276 319 l 276 231 q 324 183 276 183 l 540 183 q 588 231 588 183 l 588 336 q 576 368 588 358 q 540 383 565 378 l 282 439 q 138 509 194 458 q 82 639 82 560 l 82 808 q 137 951 82 896 q 279 1006 192 1006 l 574 1006 q 716 951 661 1006 q 771 808 771 896 l 771 692 l 576 692 z "},"Ţ":{"ha":792,"x_min":35,"x_max":757,"o":"m 450 0 l 415 -69 l 451 -69 q 537 -96 506 -69 q 568 -172 568 -122 l 568 -186 q 537 -262 568 -236 q 451 -289 506 -289 l 322 -289 l 253 -208 l 435 -208 q 451 -186 451 -208 l 451 -172 q 435 -150 451 -150 l 278 -150 l 347 0 l 296 0 l 296 814 l 35 814 l 35 1000 l 757 1000 l 757 814 l 496 814 l 496 0 l 450 0 z "},"ţ":{"ha":792,"x_min":35,"x_max":757,"o":"m 450 0 l 415 -69 l 451 -69 q 537 -96 506 -69 q 568 -172 568 -122 l 568 -186 q 537 -262 568 -236 q 451 -289 506 -289 l 322 -289 l 253 -208 l 435 -208 q 451 -186 451 -208 l 451 -172 q 435 -150 451 -150 l 278 -150 l 347 0 l 296 0 l 296 814 l 35 814 l 35 1000 l 757 1000 l 757 814 l 496 814 l 496 0 l 450 0 z "},"Ť":{"ha":792,"x_min":35,"x_max":757,"o":"m 313 1092 l 479 1092 l 674 1272 l 514 1272 l 396 1176 l 278 1272 l 118 1272 l 313 1092 m 757 814 l 496 814 l 496 0 l 296 0 l 296 814 l 35 814 l 35 1000 l 757 1000 l 757 814 z "},"ť":{"ha":792,"x_min":35,"x_max":757,"o":"m 313 1092 l 479 1092 l 674 1272 l 514 1272 l 396 1176 l 278 1272 l 118 1272 l 313 1092 m 757 814 l 496 814 l 496 0 l 296 0 l 296 814 l 35 814 l 35 1000 l 757 1000 l 757 814 z "},"Ŧ":{"ha":792,"x_min":35,"x_max":757,"o":"m 588 1261 l 588 1106 l 204 1106 l 204 1261 l 588 1261 m 757 814 l 496 814 l 496 0 l 296 0 l 296 814 l 35 814 l 35 1000 l 757 1000 l 757 814 z "},"ŧ":{"ha":792,"x_min":35,"x_max":757,"o":"m 588 1261 l 588 1106 l 204 1106 l 204 1261 l 588 1261 m 757 814 l 496 814 l 496 0 l 296 0 l 296 814 l 35 814 l 35 1000 l 757 1000 l 757 814 z "},"Ū":{"ha":903,"x_min":94,"x_max":808,"o":"m 643 1261 l 643 1106 l 260 1106 l 260 1261 l 643 1261 m 808 1000 l 808 192 q 753 49 808 104 q 611 -6 699 -6 l 292 -6 q 149 49 204 -6 q 94 192 94 104 l 94 1000 l 294 1000 l 294 231 q 342 183 294 183 l 561 183 q 608 231 608 183 l 608 1000 l 808 1000 z "},"ū":{"ha":903,"x_min":94,"x_max":808,"o":"m 643 1261 l 643 1106 l 260 1106 l 260 1261 l 643 1261 m 808 1000 l 808 192 q 753 49 808 104 q 611 -6 699 -6 l 292 -6 q 149 49 204 -6 q 94 192 94 104 l 94 1000 l 294 1000 l 294 231 q 342 183 294 183 l 561 183 q 608 231 608 183 l 608 1000 l 808 1000 z "},"Ů":{"ha":903,"x_min":94,"x_max":808,"o":"m 538 1092 l 365 1092 q 333 1106 347 1092 q 318 1139 318 1121 l 318 1286 q 333 1319 318 1304 q 365 1333 347 1333 l 538 1333 q 570 1319 556 1333 q 585 1286 585 1304 l 585 1139 q 570 1106 585 1121 q 538 1092 556 1092 m 396 1247 l 396 1178 q 413 1161 396 1161 l 490 1161 q 507 1178 507 1161 l 507 1247 q 490 1264 507 1264 l 413 1264 q 396 1247 396 1264 m 808 1000 l 808 192 q 753 49 808 104 q 611 -6 699 -6 l 292 -6 q 149 49 204 -6 q 94 192 94 104 l 94 1000 l 294 1000 l 294 231 q 342 183 294 183 l 561 183 q 608 231 608 183 l 608 1000 l 808 1000 z "},"ů":{"ha":903,"x_min":94,"x_max":808,"o":"m 538 1092 l 365 1092 q 333 1106 347 1092 q 318 1139 318 1121 l 318 1286 q 333 1319 318 1304 q 365 1333 347 1333 l 538 1333 q 570 1319 556 1333 q 585 1286 585 1304 l 585 1139 q 570 1106 585 1121 q 538 1092 556 1092 m 396 1247 l 396 1178 q 413 1161 396 1161 l 490 1161 q 507 1178 507 1161 l 507 1247 q 490 1264 507 1264 l 413 1264 q 396 1247 396 1264 m 808 1000 l 808 192 q 753 49 808 104 q 611 -6 699 -6 l 292 -6 q 149 49 204 -6 q 94 192 94 104 l 94 1000 l 294 1000 l 294 231 q 342 183 294 183 l 561 183 q 608 231 608 183 l 608 1000 l 808 1000 z "},"Ű":{"ha":903,"x_min":94,"x_max":808,"o":"m 519 1293 l 360 1092 l 185 1092 l 344 1293 l 519 1293 m 793 1293 l 633 1092 l 458 1092 l 618 1293 l 793 1293 m 808 1000 l 808 192 q 753 49 808 104 q 611 -6 699 -6 l 292 -6 q 149 49 204 -6 q 94 192 94 104 l 94 1000 l 294 1000 l 294 231 q 342 183 294 183 l 561 183 q 608 231 608 183 l 608 1000 l 808 1000 z "},"ű":{"ha":903,"x_min":94,"x_max":808,"o":"m 519 1293 l 360 1092 l 185 1092 l 344 1293 l 519 1293 m 793 1293 l 633 1092 l 458 1092 l 618 1293 l 793 1293 m 808 1000 l 808 192 q 753 49 808 104 q 611 -6 699 -6 l 292 -6 q 149 49 204 -6 q 94 192 94 104 l 94 1000 l 294 1000 l 294 231 q 342 183 294 183 l 561 183 q 608 231 608 183 l 608 1000 l 808 1000 z "},"Ų":{"ha":903,"x_min":94,"x_max":808,"o":"m 808 1000 l 808 192 q 753 49 808 104 q 611 -6 699 -6 l 524 -6 l 456 -115 q 468 -143 439 -143 l 556 -143 l 556 -249 l 417 -249 q 330 -209 354 -249 q 339 -112 306 -169 l 404 -6 l 292 -6 q 149 49 204 -6 q 94 192 94 104 l 94 1000 l 294 1000 l 294 231 q 342 183 294 183 l 561 183 q 608 231 608 183 l 608 1000 l 808 1000 z "},"ų":{"ha":903,"x_min":94,"x_max":808,"o":"m 808 1000 l 808 192 q 753 49 808 104 q 611 -6 699 -6 l 524 -6 l 456 -115 q 468 -143 439 -143 l 556 -143 l 556 -249 l 417 -249 q 330 -209 354 -249 q 339 -112 306 -169 l 404 -6 l 292 -6 q 149 49 204 -6 q 94 192 94 104 l 94 1000 l 294 1000 l 294 231 q 342 183 294 183 l 561 183 q 608 231 608 183 l 608 1000 l 808 1000 z "},"Ŵ":{"ha":1261,"x_min":25,"x_max":1236,"o":"m 517 1092 l 635 1188 l 753 1092 l 913 1092 l 718 1272 l 551 1272 l 357 1092 l 517 1092 m 988 0 l 799 0 l 635 658 l 471 0 l 274 0 l 25 1000 l 239 1000 l 375 269 l 556 1000 l 714 1000 l 894 269 l 1031 1000 l 1236 1000 l 988 0 z "},"ŵ":{"ha":1261,"x_min":25,"x_max":1236,"o":"m 517 1092 l 635 1188 l 753 1092 l 913 1092 l 718 1272 l 551 1272 l 357 1092 l 517 1092 m 988 0 l 799 0 l 635 658 l 471 0 l 274 0 l 25 1000 l 239 1000 l 375 269 l 556 1000 l 714 1000 l 894 269 l 1031 1000 l 1236 1000 l 988 0 z "},"Ŷ":{"ha":833,"x_min":8,"x_max":825,"o":"m 299 1092 l 417 1188 l 535 1092 l 694 1092 l 500 1272 l 333 1272 l 139 1092 l 299 1092 m 517 0 l 317 0 l 317 346 l 8 1000 l 228 1000 l 417 572 l 606 1000 l 825 1000 l 517 346 l 517 0 z "},"ŷ":{"ha":833,"x_min":8,"x_max":825,"o":"m 299 1092 l 417 1188 l 535 1092 l 694 1092 l 500 1272 l 333 1272 l 139 1092 l 299 1092 m 517 0 l 317 0 l 317 346 l 8 1000 l 228 1000 l 417 572 l 606 1000 l 825 1000 l 517 346 l 517 0 z "},"Ÿ":{"ha":833,"x_min":8,"x_max":825,"o":"m 361 1097 l 192 1097 l 192 1269 l 361 1269 l 361 1097 m 642 1097 l 472 1097 l 472 1269 l 642 1269 l 642 1097 m 517 0 l 317 0 l 317 346 l 8 1000 l 228 1000 l 417 572 l 606 1000 l 825 1000 l 517 346 l 517 0 z "},"Ź":{"ha":831,"x_min":64,"x_max":767,"o":"m 471 1092 l 324 1092 l 449 1292 l 678 1292 l 471 1092 m 64 153 l 514 814 l 89 814 l 89 1000 l 767 1000 l 767 847 l 317 186 l 764 186 l 764 0 l 64 0 l 64 153 z "},"ź":{"ha":831,"x_min":64,"x_max":767,"o":"m 471 1092 l 324 1092 l 449 1292 l 678 1292 l 471 1092 m 64 153 l 514 814 l 89 814 l 89 1000 l 767 1000 l 767 847 l 317 186 l 764 186 l 764 0 l 64 0 l 64 153 z "},"Ż":{"ha":831,"x_min":64,"x_max":767,"o":"m 513 1097 l 343 1097 l 343 1269 l 513 1269 l 513 1097 m 64 153 l 514 814 l 89 814 l 89 1000 l 767 1000 l 767 847 l 317 186 l 764 186 l 764 0 l 64 0 l 64 153 z "},"ż":{"ha":831,"x_min":64,"x_max":767,"o":"m 513 1097 l 343 1097 l 343 1269 l 513 1269 l 513 1097 m 64 153 l 514 814 l 89 814 l 89 1000 l 767 1000 l 767 847 l 317 186 l 764 186 l 764 0 l 64 0 l 64 153 z "},"Ž":{"ha":831,"x_min":64,"x_max":767,"o":"m 344 1092 l 511 1092 l 706 1272 l 546 1272 l 428 1176 l 310 1272 l 150 1272 l 344 1092 m 64 153 l 514 814 l 89 814 l 89 1000 l 767 1000 l 767 847 l 317 186 l 764 186 l 764 0 l 64 0 l 64 153 z "},"ž":{"ha":831,"x_min":64,"x_max":767,"o":"m 344 1092 l 511 1092 l 706 1272 l 546 1272 l 428 1176 l 310 1272 l 150 1272 l 344 1092 m 64 153 l 514 814 l 89 814 l 89 1000 l 767 1000 l 767 847 l 317 186 l 764 186 l 764 0 l 64 0 l 64 153 z "},"ƒ":{"ha":644,"x_min":47,"x_max":597,"o":"m 597 811 l 449 811 q 401 764 401 811 l 401 639 l 583 639 l 583 458 l 401 458 l 401 194 q 349 53 401 106 q 207 0 297 0 l 47 0 l 47 189 l 154 189 q 201 236 201 189 l 201 458 l 57 458 l 57 639 l 201 639 l 201 806 q 253 947 201 894 q 396 1000 306 1000 l 597 1000 l 597 811 z "},"ˆ":{"ha":917,"x_min":181,"x_max":736,"o":"m 340 1092 l 458 1188 l 576 1092 l 736 1092 l 542 1272 l 375 1272 l 181 1092 l 340 1092 z "},"ˇ":{"ha":917,"x_min":181,"x_max":736,"o":"m 375 1092 l 542 1092 l 736 1272 l 576 1272 l 458 1176 l 340 1272 l 181 1272 l 375 1092 z "},"˘":{"ha":858,"x_min":264,"x_max":594,"o":"m 594 1279 l 594 1181 q 568 1118 594 1144 q 506 1092 542 1092 l 353 1092 q 290 1118 317 1092 q 264 1181 264 1144 l 264 1279 l 372 1279 l 372 1222 q 380 1201 372 1210 q 400 1192 388 1192 l 461 1192 q 486 1222 486 1192 l 486 1279 l 594 1279 z "},"˙":{"ha":608,"x_min":219,"x_max":389,"o":"m 389 1097 l 219 1097 l 219 1269 l 389 1269 l 389 1097 z "},"˚":{"ha":478,"x_min":106,"x_max":372,"o":"m 325 1092 l 153 1092 q 120 1106 135 1092 q 106 1139 106 1121 l 106 1286 q 120 1319 106 1304 q 153 1333 135 1333 l 325 1333 q 358 1319 343 1333 q 372 1286 372 1304 l 372 1139 q 358 1106 372 1121 q 325 1092 343 1092 m 183 1247 l 183 1178 q 200 1161 183 1161 l 278 1161 q 294 1178 294 1161 l 294 1247 q 278 1264 294 1264 l 200 1264 q 183 1247 183 1264 z "},"˛":{"ha":533,"x_min":185,"x_max":411,"o":"m 381 0 l 311 -112 q 324 -140 294 -140 l 411 -140 l 411 -246 l 272 -246 q 185 -206 210 -246 q 194 -110 161 -167 l 261 0 l 381 0 z "},"˜":{"ha":847,"x_min":208,"x_max":639,"o":"m 297 1092 l 322 1149 l 528 1093 q 608 1129 596 1075 l 639 1263 l 547 1263 l 521 1208 l 318 1261 q 236 1224 247 1279 l 208 1092 l 297 1092 z "},"˝":{"ha":1042,"x_min":217,"x_max":825,"o":"m 551 1293 l 392 1092 l 217 1092 l 376 1293 l 551 1293 m 825 1293 l 665 1092 l 490 1092 l 650 1293 l 825 1293 z "},"̦":{"ha":0,"x_min":125,"x_max":351,"o":"m 351 -97 l 351 -247 q 285 -378 351 -292 l 203 -486 l 125 -486 l 232 -300 l 157 -300 l 157 -97 l 351 -97 z "},"Ẁ":{"ha":1261,"x_min":25,"x_max":1236,"o":"m 592 1092 l 739 1092 l 614 1292 l 385 1292 l 592 1092 m 988 0 l 799 0 l 635 658 l 471 0 l 274 0 l 25 1000 l 239 1000 l 375 269 l 556 1000 l 714 1000 l 894 269 l 1031 1000 l 1236 1000 l 988 0 z "},"ẁ":{"ha":1261,"x_min":25,"x_max":1236,"o":"m 592 1092 l 739 1092 l 614 1292 l 385 1292 l 592 1092 m 988 0 l 799 0 l 635 658 l 471 0 l 274 0 l 25 1000 l 239 1000 l 375 269 l 556 1000 l 714 1000 l 894 269 l 1031 1000 l 1236 1000 l 988 0 z "},"Ẃ":{"ha":1261,"x_min":25,"x_max":1236,"o":"m 678 1092 l 531 1092 l 656 1292 l 885 1292 l 678 1092 m 988 0 l 799 0 l 635 658 l 471 0 l 274 0 l 25 1000 l 239 1000 l 375 269 l 556 1000 l 714 1000 l 894 269 l 1031 1000 l 1236 1000 l 988 0 z "},"ẃ":{"ha":1261,"x_min":25,"x_max":1236,"o":"m 678 1092 l 531 1092 l 656 1292 l 885 1292 l 678 1092 m 988 0 l 799 0 l 635 658 l 471 0 l 274 0 l 25 1000 l 239 1000 l 375 269 l 556 1000 l 714 1000 l 894 269 l 1031 1000 l 1236 1000 l 988 0 z "},"Ẅ":{"ha":1261,"x_min":25,"x_max":1236,"o":"m 579 1097 l 410 1097 l 410 1269 l 579 1269 l 579 1097 m 860 1097 l 690 1097 l 690 1269 l 860 1269 l 860 1097 m 988 0 l 799 0 l 635 658 l 471 0 l 274 0 l 25 1000 l 239 1000 l 375 269 l 556 1000 l 714 1000 l 894 269 l 1031 1000 l 1236 1000 l 988 0 z "},"ẅ":{"ha":1261,"x_min":25,"x_max":1236,"o":"m 579 1097 l 410 1097 l 410 1269 l 579 1269 l 579 1097 m 860 1097 l 690 1097 l 690 1269 l 860 1269 l 860 1097 m 988 0 l 799 0 l 635 658 l 471 0 l 274 0 l 25 1000 l 239 1000 l 375 269 l 556 1000 l 714 1000 l 894 269 l 1031 1000 l 1236 1000 l 988 0 z "},"Ỳ":{"ha":833,"x_min":8,"x_max":825,"o":"m 374 1092 l 521 1092 l 396 1292 l 167 1292 l 374 1092 m 517 0 l 317 0 l 317 346 l 8 1000 l 228 1000 l 417 572 l 606 1000 l 825 1000 l 517 346 l 517 0 z "},"ỳ":{"ha":833,"x_min":8,"x_max":825,"o":"m 374 1092 l 521 1092 l 396 1292 l 167 1292 l 374 1092 m 517 0 l 317 0 l 317 346 l 8 1000 l 228 1000 l 417 572 l 606 1000 l 825 1000 l 517 346 l 517 0 z "},"–":{"ha":781,"x_min":71,"x_max":710,"o":"m 710 547 l 710 367 l 71 367 l 71 547 l 710 547 z "},"—":{"ha":1114,"x_min":71,"x_max":1043,"o":"m 1043 547 l 1043 367 l 71 367 l 71 547 l 1043 547 z "},"‘":{"ha":347,"x_min":76,"x_max":303,"o":"m 76 611 l 76 761 q 143 892 76 806 l 225 1000 l 303 1000 l 196 814 l 271 814 l 271 611 l 76 611 z "},"’":{"ha":347,"x_min":44,"x_max":271,"o":"m 271 1000 l 271 850 q 204 719 271 806 l 122 611 l 44 611 l 151 797 l 76 797 l 76 1000 l 271 1000 z "},"‚":{"ha":347,"x_min":44,"x_max":271,"o":"m 271 203 l 271 53 q 204 -78 271 8 l 122 -186 l 44 -186 l 151 0 l 76 0 l 76 203 l 271 203 z "},"“":{"ha":633,"x_min":76,"x_max":589,"o":"m 76 611 l 76 761 q 143 892 76 806 l 225 1000 l 303 1000 l 196 814 l 271 814 l 271 611 l 76 611 m 363 611 l 363 761 q 429 892 363 806 l 511 1000 l 589 1000 l 482 814 l 557 814 l 557 611 l 363 611 z "},"”":{"ha":633,"x_min":44,"x_max":557,"o":"m 271 1000 l 271 850 q 204 719 271 806 l 122 611 l 44 611 l 151 797 l 76 797 l 76 1000 l 271 1000 m 557 1000 l 557 850 q 490 719 557 806 l 408 611 l 331 611 l 438 797 l 363 797 l 363 1000 l 557 1000 z "},"„":{"ha":633,"x_min":44,"x_max":557,"o":"m 271 203 l 271 53 q 204 -78 271 8 l 122 -186 l 44 -186 l 151 0 l 76 0 l 76 203 l 271 203 m 557 203 l 557 53 q 490 -78 557 8 l 408 -186 l 331 -186 l 438 0 l 363 0 l 363 203 l 557 203 z "},"†":{"ha":519,"x_min":28,"x_max":492,"o":"m 347 583 l 347 0 l 172 0 l 172 583 l 28 583 l 28 750 l 172 750 l 172 1000 l 347 1000 l 347 750 l 492 750 l 492 583 l 347 583 z "},"‡":{"ha":519,"x_min":28,"x_max":492,"o":"m 347 417 l 492 417 l 492 250 l 347 250 l 347 0 l 172 0 l 172 250 l 28 250 l 28 417 l 172 417 l 172 583 l 28 583 l 28 750 l 172 750 l 172 1000 l 347 1000 l 347 750 l 492 750 l 492 583 l 347 583 l 347 417 z "},"•":{"ha":594,"x_min":142,"x_max":453,"o":"m 400 361 l 194 361 q 157 376 172 361 q 142 414 142 392 l 142 619 q 157 657 142 642 q 194 672 172 672 l 400 672 q 438 657 422 672 q 453 619 453 642 l 453 414 q 438 376 453 392 q 400 361 422 361 z "},"…":{"ha":958,"x_min":76,"x_max":882,"o":"m 271 0 l 76 0 l 76 203 l 271 203 l 271 0 m 576 0 l 382 0 l 382 203 l 576 203 l 576 0 m 882 0 l 688 0 l 688 203 l 882 203 l 882 0 z "},"‰":{"ha":1242,"x_min":56,"x_max":1188,"o":"m 144 1006 l 281 1006 q 344 981 319 1006 q 369 917 369 956 l 369 706 q 344 642 369 667 q 281 617 319 617 l 144 617 q 81 642 106 617 q 56 706 56 667 l 56 917 q 81 981 56 956 q 144 1006 106 1006 m 736 1000 l 286 0 l 125 0 l 575 1000 l 736 1000 m 268 736 l 268 886 q 249 911 268 911 l 179 911 q 157 886 157 911 l 157 736 q 179 711 157 711 l 249 711 q 268 736 268 711 m 586 383 l 722 383 q 786 358 761 383 q 811 294 811 333 l 811 83 q 786 19 811 44 q 722 -6 761 -6 l 586 -6 q 522 19 547 -6 q 497 83 497 44 l 497 294 q 522 358 497 333 q 586 383 547 383 m 963 383 l 1099 383 q 1163 358 1138 383 q 1188 294 1188 333 l 1188 83 q 1163 19 1188 44 q 1099 -6 1138 -6 l 963 -6 q 899 19 924 -6 q 874 83 874 44 l 874 294 q 899 358 874 333 q 963 383 924 383 m 710 114 l 710 264 q 690 289 710 289 l 621 289 q 599 264 599 289 l 599 114 q 621 89 599 89 l 690 89 q 710 114 710 89 m 1086 114 l 1086 264 q 1067 289 1086 289 l 997 289 q 975 264 975 289 l 975 114 q 997 89 975 89 l 1067 89 q 1086 114 1086 89 z "},"‹":{"ha":431,"x_min":21,"x_max":399,"o":"m 399 776 l 194 488 l 399 200 l 199 200 l 21 451 l 21 524 l 199 776 l 399 776 z "},"›":{"ha":431,"x_min":32,"x_max":410,"o":"m 410 524 l 410 451 l 232 200 l 32 200 l 236 488 l 32 776 l 232 776 l 410 524 z "},"€":{"ha":939,"x_min":35,"x_max":860,"o":"m 660 675 l 660 769 q 613 817 660 817 l 390 817 q 343 769 343 817 l 343 644 l 590 644 l 590 546 l 343 546 l 343 454 l 590 454 l 590 356 l 343 356 l 343 231 q 390 183 343 183 l 613 183 q 660 231 660 183 l 660 325 l 860 325 l 860 192 q 805 49 860 104 q 663 -6 750 -6 l 340 -6 q 198 49 253 -6 q 143 192 143 104 l 143 356 l 35 356 l 35 454 l 143 454 l 143 546 l 35 546 l 35 644 l 143 644 l 143 808 q 198 951 143 896 q 340 1006 253 1006 l 663 1006 q 805 951 750 1006 q 860 808 860 896 l 860 675 l 660 675 z "},"™":{"ha":1050,"x_min":69,"x_max":981,"o":"m 431 903 l 301 903 l 301 500 l 197 500 l 197 903 l 69 903 l 69 1000 l 431 1000 l 431 903 m 981 1000 l 981 500 l 885 500 l 885 826 l 778 578 l 710 578 l 603 826 l 603 500 l 507 500 l 507 1000 l 621 1000 l 743 717 l 868 1000 l 981 1000 z "},"−":{"ha":706,"x_min":78,"x_max":628,"o":"m 78 607 l 628 607 l 628 421 l 78 421 l 78 607 z "},"∞":{"ha":1153,"x_min":76,"x_max":1076,"o":"m 725 792 l 879 792 q 1022 737 967 792 q 1076 594 1076 682 l 1076 414 q 1022 272 1076 326 q 879 217 967 217 l 725 217 q 576 310 643 217 q 428 217 510 217 l 274 217 q 131 270 186 217 q 76 411 76 324 l 76 594 q 131 737 76 682 q 274 792 186 792 l 428 792 q 576 699 510 792 q 725 792 643 792 m 290 397 l 404 397 q 451 444 451 397 l 451 564 q 404 611 451 611 l 290 611 q 243 564 243 611 l 243 444 q 290 397 243 397 m 910 444 l 910 564 q 863 611 910 611 l 749 611 q 701 564 701 611 l 701 444 q 749 397 701 397 l 863 397 q 910 444 910 397 z "},"≠":{"ha":706,"x_min":78,"x_max":628,"o":"m 401 467 l 628 467 l 628 286 l 336 286 l 278 126 l 147 126 l 206 286 l 78 286 l 78 467 l 271 467 l 308 572 l 78 572 l 78 753 l 374 753 l 428 903 l 558 903 l 504 753 l 628 753 l 628 572 l 439 572 l 401 467 z "}}}
